<mxfile host="app.diagrams.net" agent="Mozilla/5.0 (X11; Linux x86_64; rv:138.0) Gecko/20100101 Firefox/138.0" version="27.0.6">
  <diagram name="Page-1" id="jbjJNkPmUtP2dKSvGRad">
    <mxGraphModel dx="2267" dy="2478" grid="1" gridSize="10" guides="0" tooltips="1" connect="1" arrows="1" fold="1" page="1" pageScale="1" pageWidth="850" pageHeight="1100" background="none" math="0" shadow="0">
      <root>
        <mxCell id="0" />
        <mxCell id="1" style="locked=1;" parent="0" />
        <mxCell id="MM-OqsWLesy-Uxxo-XAG-275" value="" style="whiteSpace=wrap;html=1;strokeColor=none;" parent="1" vertex="1">
          <mxGeometry y="-520" width="2050" height="1640" as="geometry" />
        </mxCell>
        <object label="diagrams" id="MM-OqsWLesy-Uxxo-XAG-184">
          <mxCell style="" parent="0" />
        </object>
        <mxCell id="MM-OqsWLesy-Uxxo-XAG-185" value="&lt;div align=&quot;left&quot;&gt;&lt;br&gt;&lt;/div&gt;" style="rounded=0;whiteSpace=wrap;html=1;container=0;" parent="MM-OqsWLesy-Uxxo-XAG-184" vertex="1">
          <mxGeometry x="30" y="40" width="300" height="700" as="geometry" />
        </mxCell>
        <mxCell id="MM-OqsWLesy-Uxxo-XAG-188" value="&lt;div&gt;img_t&lt;/div&gt;" style="text;html=1;align=left;verticalAlign=middle;whiteSpace=wrap;rounded=0;fontSize=18;container=0;" parent="MM-OqsWLesy-Uxxo-XAG-184" vertex="1">
          <mxGeometry x="40" y="50" width="160" height="30" as="geometry" />
        </mxCell>
        <mxCell id="-bkXF7WFPklkNgfoujYP-6" value="" style="group" parent="MM-OqsWLesy-Uxxo-XAG-184" vertex="1" connectable="0">
          <mxGeometry x="80" y="190" width="220" height="40" as="geometry" />
        </mxCell>
        <mxCell id="-bkXF7WFPklkNgfoujYP-7" value="" style="rounded=0;whiteSpace=wrap;html=1;container=0;fillColor=#b1ddf0;strokeColor=#10739e;" parent="-bkXF7WFPklkNgfoujYP-6" vertex="1">
          <mxGeometry width="220.00000000000003" height="40" as="geometry" />
        </mxCell>
        <mxCell id="-bkXF7WFPklkNgfoujYP-8" value="&lt;div&gt;qtable_prec_t *qtables[4]&lt;/div&gt;" style="text;html=1;align=left;verticalAlign=middle;whiteSpace=wrap;rounded=0;fontSize=18;container=0;" parent="-bkXF7WFPklkNgfoujYP-6" vertex="1">
          <mxGeometry x="11.578947368421053" y="5" width="208.42105263157896" height="30" as="geometry" />
        </mxCell>
        <mxCell id="-bkXF7WFPklkNgfoujYP-9" value="" style="group" parent="MM-OqsWLesy-Uxxo-XAG-184" vertex="1" connectable="0">
          <mxGeometry x="80" y="240" width="220" height="40" as="geometry" />
        </mxCell>
        <mxCell id="-bkXF7WFPklkNgfoujYP-10" value="" style="rounded=0;whiteSpace=wrap;html=1;container=0;fillColor=#b1ddf0;strokeColor=#10739e;" parent="-bkXF7WFPklkNgfoujYP-9" vertex="1">
          <mxGeometry width="220" height="40" as="geometry" />
        </mxCell>
        <mxCell id="-bkXF7WFPklkNgfoujYP-11" value="htables_t *htables" style="text;html=1;align=left;verticalAlign=middle;whiteSpace=wrap;rounded=0;fontSize=18;container=0;" parent="-bkXF7WFPklkNgfoujYP-9" vertex="1">
          <mxGeometry x="11.578947368421053" y="5" width="208.42105263157896" height="30" as="geometry" />
        </mxCell>
        <mxCell id="-bkXF7WFPklkNgfoujYP-13" value="" style="group" parent="MM-OqsWLesy-Uxxo-XAG-184" vertex="1" connectable="0">
          <mxGeometry x="80" y="290" width="220" height="40" as="geometry" />
        </mxCell>
        <mxCell id="-bkXF7WFPklkNgfoujYP-14" value="" style="rounded=0;whiteSpace=wrap;html=1;container=0;fillColor=#b1ddf0;strokeColor=#10739e;" parent="-bkXF7WFPklkNgfoujYP-13" vertex="1">
          <mxGeometry width="220" height="40" as="geometry" />
        </mxCell>
        <mxCell id="-bkXF7WFPklkNgfoujYP-15" value="&lt;div&gt;comps_t *comps&lt;/div&gt;" style="text;html=1;align=left;verticalAlign=middle;whiteSpace=wrap;rounded=0;fontSize=18;container=0;" parent="-bkXF7WFPklkNgfoujYP-13" vertex="1">
          <mxGeometry x="11.578947368421053" y="5" width="208.42105263157896" height="30" as="geometry" />
        </mxCell>
        <mxCell id="MM-OqsWLesy-Uxxo-XAG-187" value="" style="rounded=0;whiteSpace=wrap;html=1;container=0;" parent="MM-OqsWLesy-Uxxo-XAG-184" vertex="1">
          <mxGeometry x="80" y="90" width="150" height="40" as="geometry" />
        </mxCell>
        <mxCell id="MM-OqsWLesy-Uxxo-XAG-189" value="uint16_t height" style="text;html=1;align=left;verticalAlign=middle;whiteSpace=wrap;rounded=0;fontSize=18;container=0;" parent="MM-OqsWLesy-Uxxo-XAG-184" vertex="1">
          <mxGeometry x="87.89473684210526" y="95" width="142.10526315789474" height="30" as="geometry" />
        </mxCell>
        <mxCell id="-bkXF7WFPklkNgfoujYP-16" value="" style="group" parent="MM-OqsWLesy-Uxxo-XAG-184" vertex="1" connectable="0">
          <mxGeometry x="80" y="340" width="220" height="40" as="geometry" />
        </mxCell>
        <mxCell id="-bkXF7WFPklkNgfoujYP-17" value="" style="rounded=0;whiteSpace=wrap;html=1;container=0;fillColor=#b1ddf0;strokeColor=#10739e;" parent="-bkXF7WFPklkNgfoujYP-16" vertex="1">
          <mxGeometry width="220" height="40" as="geometry" />
        </mxCell>
        <mxCell id="-bkXF7WFPklkNgfoujYP-18" value="section_done_t *section" style="text;html=1;align=left;verticalAlign=middle;whiteSpace=wrap;rounded=0;fontSize=18;container=0;" parent="-bkXF7WFPklkNgfoujYP-16" vertex="1">
          <mxGeometry x="11.578947368421053" y="5" width="208.42105263157896" height="30" as="geometry" />
        </mxCell>
        <mxCell id="-bkXF7WFPklkNgfoujYP-19" value="" style="group" parent="MM-OqsWLesy-Uxxo-XAG-184" vertex="1" connectable="0">
          <mxGeometry x="80" y="390" width="220" height="40" as="geometry" />
        </mxCell>
        <mxCell id="-bkXF7WFPklkNgfoujYP-20" value="" style="rounded=0;whiteSpace=wrap;html=1;container=0;fillColor=#b1ddf0;strokeColor=#10739e;" parent="-bkXF7WFPklkNgfoujYP-19" vertex="1">
          <mxGeometry width="220" height="40" as="geometry" />
        </mxCell>
        <mxCell id="-bkXF7WFPklkNgfoujYP-21" value="other_t *other" style="text;html=1;align=left;verticalAlign=middle;whiteSpace=wrap;rounded=0;fontSize=18;container=0;" parent="-bkXF7WFPklkNgfoujYP-19" vertex="1">
          <mxGeometry x="11.578947368421053" y="5" width="208.42105263157896" height="30" as="geometry" />
        </mxCell>
        <mxCell id="-bkXF7WFPklkNgfoujYP-22" value="" style="group" parent="MM-OqsWLesy-Uxxo-XAG-184" vertex="1" connectable="0">
          <mxGeometry x="80" y="140" width="150" height="40" as="geometry" />
        </mxCell>
        <mxCell id="-bkXF7WFPklkNgfoujYP-4" value="" style="rounded=0;whiteSpace=wrap;html=1;container=0;" parent="-bkXF7WFPklkNgfoujYP-22" vertex="1">
          <mxGeometry width="150" height="40" as="geometry" />
        </mxCell>
        <mxCell id="-bkXF7WFPklkNgfoujYP-5" value="&lt;div&gt;uint16_t width&lt;/div&gt;" style="text;html=1;align=left;verticalAlign=middle;whiteSpace=wrap;rounded=0;fontSize=18;container=0;" parent="-bkXF7WFPklkNgfoujYP-22" vertex="1">
          <mxGeometry x="7.89473684210526" y="5" width="142.10526315789474" height="30" as="geometry" />
        </mxCell>
        <mxCell id="-bkXF7WFPklkNgfoujYP-23" value="" style="group" parent="MM-OqsWLesy-Uxxo-XAG-184" vertex="1" connectable="0">
          <mxGeometry x="80" y="490" width="205" height="40" as="geometry" />
        </mxCell>
        <mxCell id="-bkXF7WFPklkNgfoujYP-24" value="" style="rounded=0;whiteSpace=wrap;html=1;container=0;" parent="-bkXF7WFPklkNgfoujYP-23" vertex="1">
          <mxGeometry width="204.99999999999997" height="40" as="geometry" />
        </mxCell>
        <mxCell id="-bkXF7WFPklkNgfoujYP-25" value="&lt;div&gt;uint8_t max_hsampling&lt;/div&gt;" style="text;html=1;align=left;verticalAlign=middle;whiteSpace=wrap;rounded=0;fontSize=18;container=0;" parent="-bkXF7WFPklkNgfoujYP-23" vertex="1">
          <mxGeometry x="10.24622368421052" y="5" width="194.21052631578945" height="30" as="geometry" />
        </mxCell>
        <mxCell id="-bkXF7WFPklkNgfoujYP-26" value="" style="group" parent="MM-OqsWLesy-Uxxo-XAG-184" vertex="1" connectable="0">
          <mxGeometry x="80" y="540" width="330" height="60" as="geometry" />
        </mxCell>
        <mxCell id="-bkXF7WFPklkNgfoujYP-27" value="" style="rounded=0;whiteSpace=wrap;html=1;container=0;" parent="-bkXF7WFPklkNgfoujYP-26" vertex="1">
          <mxGeometry width="204.99999999999997" height="40" as="geometry" />
        </mxCell>
        <mxCell id="-bkXF7WFPklkNgfoujYP-28" value="&lt;div&gt;uint8_t max_vsampling&lt;/div&gt;" style="text;html=1;align=left;verticalAlign=middle;whiteSpace=wrap;rounded=0;fontSize=18;container=0;" parent="-bkXF7WFPklkNgfoujYP-26" vertex="1">
          <mxGeometry x="10.24622368421052" y="5" width="194.21052631578945" height="30" as="geometry" />
        </mxCell>
        <mxCell id="-bkXF7WFPklkNgfoujYP-30" value="" style="group" parent="MM-OqsWLesy-Uxxo-XAG-184" vertex="1" connectable="0">
          <mxGeometry x="80" y="590" width="160" height="40" as="geometry" />
        </mxCell>
        <mxCell id="-bkXF7WFPklkNgfoujYP-31" value="" style="rounded=0;whiteSpace=wrap;html=1;container=0;" parent="-bkXF7WFPklkNgfoujYP-30" vertex="1">
          <mxGeometry width="160" height="40" as="geometry" />
        </mxCell>
        <mxCell id="-bkXF7WFPklkNgfoujYP-32" value="uint64_t nbmcuH" style="text;html=1;align=left;verticalAlign=middle;whiteSpace=wrap;rounded=0;fontSize=18;container=0;" parent="-bkXF7WFPklkNgfoujYP-30" vertex="1">
          <mxGeometry x="7.89" y="5" width="152.11" height="30" as="geometry" />
        </mxCell>
        <mxCell id="-bkXF7WFPklkNgfoujYP-33" value="" style="group" parent="MM-OqsWLesy-Uxxo-XAG-184" vertex="1" connectable="0">
          <mxGeometry x="80" y="640" width="160" height="40" as="geometry" />
        </mxCell>
        <mxCell id="-bkXF7WFPklkNgfoujYP-34" value="" style="rounded=0;whiteSpace=wrap;html=1;container=0;" parent="-bkXF7WFPklkNgfoujYP-33" vertex="1">
          <mxGeometry width="160" height="40" as="geometry" />
        </mxCell>
        <mxCell id="-bkXF7WFPklkNgfoujYP-35" value="uint64_t nbmcuV" style="text;html=1;align=left;verticalAlign=middle;whiteSpace=wrap;rounded=0;fontSize=18;container=0;" parent="-bkXF7WFPklkNgfoujYP-33" vertex="1">
          <mxGeometry x="7.89" y="5" width="152.11" height="30" as="geometry" />
        </mxCell>
        <mxCell id="-bkXF7WFPklkNgfoujYP-36" value="" style="group" parent="MM-OqsWLesy-Uxxo-XAG-184" vertex="1" connectable="0">
          <mxGeometry x="80" y="690" width="150" height="40" as="geometry" />
        </mxCell>
        <mxCell id="-bkXF7WFPklkNgfoujYP-37" value="" style="rounded=0;whiteSpace=wrap;html=1;container=0;" parent="-bkXF7WFPklkNgfoujYP-36" vertex="1">
          <mxGeometry width="150" height="40" as="geometry" />
        </mxCell>
        <mxCell id="-bkXF7WFPklkNgfoujYP-38" value="uint64_t nbMCU" style="text;html=1;align=left;verticalAlign=middle;whiteSpace=wrap;rounded=0;fontSize=18;container=0;" parent="-bkXF7WFPklkNgfoujYP-36" vertex="1">
          <mxGeometry x="7.89473684210526" y="5" width="142.10526315789474" height="30" as="geometry" />
        </mxCell>
        <mxCell id="e3jmrKQqIBXuTLJc6fM6-104" value="" style="group" parent="MM-OqsWLesy-Uxxo-XAG-184" vertex="1" connectable="0">
          <mxGeometry x="1340" y="-370" width="640" height="110" as="geometry" />
        </mxCell>
        <mxCell id="e3jmrKQqIBXuTLJc6fM6-39" value="" style="group" parent="e3jmrKQqIBXuTLJc6fM6-104" vertex="1" connectable="0">
          <mxGeometry y="10" width="210" height="100" as="geometry" />
        </mxCell>
        <mxCell id="e3jmrKQqIBXuTLJc6fM6-25" value="&lt;div align=&quot;left&quot;&gt;&lt;br&gt;&lt;/div&gt;" style="rounded=0;whiteSpace=wrap;html=1;container=0;" parent="e3jmrKQqIBXuTLJc6fM6-39" vertex="1">
          <mxGeometry width="210" height="100" as="geometry" />
        </mxCell>
        <mxCell id="e3jmrKQqIBXuTLJc6fM6-26" value="qtable_t" style="text;html=1;align=left;verticalAlign=middle;whiteSpace=wrap;rounded=0;fontSize=18;container=0;" parent="e3jmrKQqIBXuTLJc6fM6-39" vertex="1">
          <mxGeometry x="10" y="10" width="160" height="30" as="geometry" />
        </mxCell>
        <mxCell id="e3jmrKQqIBXuTLJc6fM6-33" value="" style="group;fillColor=#b1ddf0;strokeColor=#10739e;container=0;" parent="e3jmrKQqIBXuTLJc6fM6-39" vertex="1" connectable="0">
          <mxGeometry x="40" y="50" width="160" height="40" as="geometry" />
        </mxCell>
        <mxCell id="e3jmrKQqIBXuTLJc6fM6-31" value="" style="rounded=0;whiteSpace=wrap;html=1;container=0;fillColor=#b1ddf0;strokeColor=#10739e;" parent="e3jmrKQqIBXuTLJc6fM6-39" vertex="1">
          <mxGeometry x="40" y="50" width="160" height="40" as="geometry" />
        </mxCell>
        <mxCell id="e3jmrKQqIBXuTLJc6fM6-32" value="uint16_t data[64]" style="text;html=1;align=left;verticalAlign=middle;whiteSpace=wrap;rounded=0;fontSize=18;container=0;" parent="e3jmrKQqIBXuTLJc6fM6-39" vertex="1">
          <mxGeometry x="50" y="55" width="142.38" height="30" as="geometry" />
        </mxCell>
        <mxCell id="e3jmrKQqIBXuTLJc6fM6-80" value="" style="group" parent="e3jmrKQqIBXuTLJc6fM6-104" vertex="1" connectable="0">
          <mxGeometry x="240" y="60" width="90" height="40" as="geometry" />
        </mxCell>
        <mxCell id="e3jmrKQqIBXuTLJc6fM6-35" style="edgeStyle=orthogonalEdgeStyle;rounded=0;orthogonalLoop=1;jettySize=auto;html=1;exitX=1;exitY=0.75;exitDx=0;exitDy=0;entryX=1;entryY=0.5;entryDx=0;entryDy=0;" parent="e3jmrKQqIBXuTLJc6fM6-80" source="e3jmrKQqIBXuTLJc6fM6-36" target="e3jmrKQqIBXuTLJc6fM6-37" edge="1">
          <mxGeometry relative="1" as="geometry" />
        </mxCell>
        <mxCell id="e3jmrKQqIBXuTLJc6fM6-99" style="edgeStyle=orthogonalEdgeStyle;rounded=0;orthogonalLoop=1;jettySize=auto;html=1;exitX=1;exitY=0.5;exitDx=0;exitDy=0;" parent="e3jmrKQqIBXuTLJc6fM6-80" source="e3jmrKQqIBXuTLJc6fM6-36" edge="1">
          <mxGeometry relative="1" as="geometry">
            <mxPoint x="120" y="20" as="targetPoint" />
          </mxGeometry>
        </mxCell>
        <mxCell id="e3jmrKQqIBXuTLJc6fM6-36" value="" style="rounded=0;whiteSpace=wrap;html=1;container=0;" parent="e3jmrKQqIBXuTLJc6fM6-80" vertex="1">
          <mxGeometry width="90" height="40" as="geometry" />
        </mxCell>
        <mxCell id="e3jmrKQqIBXuTLJc6fM6-37" value="uint16_t" style="text;html=1;align=left;verticalAlign=middle;whiteSpace=wrap;rounded=0;fontSize=18;container=0;" parent="e3jmrKQqIBXuTLJc6fM6-80" vertex="1">
          <mxGeometry x="12.85714285714289" y="5" width="64.28571428571428" height="30" as="geometry" />
        </mxCell>
        <mxCell id="e3jmrKQqIBXuTLJc6fM6-81" style="edgeStyle=orthogonalEdgeStyle;rounded=0;orthogonalLoop=1;jettySize=auto;html=1;exitX=1;exitY=0.5;exitDx=0;exitDy=0;entryX=0;entryY=0.5;entryDx=0;entryDy=0;" parent="e3jmrKQqIBXuTLJc6fM6-104" source="e3jmrKQqIBXuTLJc6fM6-31" target="e3jmrKQqIBXuTLJc6fM6-36" edge="1">
          <mxGeometry relative="1" as="geometry" />
        </mxCell>
        <mxCell id="e3jmrKQqIBXuTLJc6fM6-82" value="" style="group" parent="e3jmrKQqIBXuTLJc6fM6-104" vertex="1" connectable="0">
          <mxGeometry x="360" y="60" width="90" height="40" as="geometry" />
        </mxCell>
        <mxCell id="e3jmrKQqIBXuTLJc6fM6-83" style="edgeStyle=orthogonalEdgeStyle;rounded=0;orthogonalLoop=1;jettySize=auto;html=1;exitX=1;exitY=0.75;exitDx=0;exitDy=0;entryX=1;entryY=0.5;entryDx=0;entryDy=0;" parent="e3jmrKQqIBXuTLJc6fM6-82" source="e3jmrKQqIBXuTLJc6fM6-84" target="e3jmrKQqIBXuTLJc6fM6-85" edge="1">
          <mxGeometry relative="1" as="geometry" />
        </mxCell>
        <mxCell id="e3jmrKQqIBXuTLJc6fM6-84" value="" style="rounded=0;whiteSpace=wrap;html=1;container=0;" parent="e3jmrKQqIBXuTLJc6fM6-82" vertex="1">
          <mxGeometry width="90" height="40" as="geometry" />
        </mxCell>
        <mxCell id="e3jmrKQqIBXuTLJc6fM6-85" value="uint16_t" style="text;html=1;align=left;verticalAlign=middle;whiteSpace=wrap;rounded=0;fontSize=18;container=0;" parent="e3jmrKQqIBXuTLJc6fM6-82" vertex="1">
          <mxGeometry x="12.85714285714289" y="5" width="64.28571428571428" height="30" as="geometry" />
        </mxCell>
        <mxCell id="e3jmrKQqIBXuTLJc6fM6-87" value="" style="group" parent="e3jmrKQqIBXuTLJc6fM6-104" vertex="1" connectable="0">
          <mxGeometry x="550" y="60" width="90" height="40" as="geometry" />
        </mxCell>
        <mxCell id="e3jmrKQqIBXuTLJc6fM6-88" style="edgeStyle=orthogonalEdgeStyle;rounded=0;orthogonalLoop=1;jettySize=auto;html=1;exitX=1;exitY=0.75;exitDx=0;exitDy=0;entryX=1;entryY=0.5;entryDx=0;entryDy=0;" parent="e3jmrKQqIBXuTLJc6fM6-87" source="e3jmrKQqIBXuTLJc6fM6-89" target="e3jmrKQqIBXuTLJc6fM6-90" edge="1">
          <mxGeometry relative="1" as="geometry" />
        </mxCell>
        <mxCell id="e3jmrKQqIBXuTLJc6fM6-89" value="" style="rounded=0;whiteSpace=wrap;html=1;container=0;" parent="e3jmrKQqIBXuTLJc6fM6-87" vertex="1">
          <mxGeometry width="90" height="40" as="geometry" />
        </mxCell>
        <mxCell id="e3jmrKQqIBXuTLJc6fM6-90" value="uint16_t" style="text;html=1;align=left;verticalAlign=middle;whiteSpace=wrap;rounded=0;fontSize=18;container=0;" parent="e3jmrKQqIBXuTLJc6fM6-87" vertex="1">
          <mxGeometry x="12.85714285714289" y="5" width="64.28571428571428" height="30" as="geometry" />
        </mxCell>
        <mxCell id="e3jmrKQqIBXuTLJc6fM6-103" style="edgeStyle=orthogonalEdgeStyle;rounded=0;orthogonalLoop=1;jettySize=auto;html=1;exitX=1;exitY=0.5;exitDx=0;exitDy=0;entryX=0;entryY=0.5;entryDx=0;entryDy=0;" parent="e3jmrKQqIBXuTLJc6fM6-104" source="e3jmrKQqIBXuTLJc6fM6-91" target="e3jmrKQqIBXuTLJc6fM6-89" edge="1">
          <mxGeometry relative="1" as="geometry" />
        </mxCell>
        <mxCell id="e3jmrKQqIBXuTLJc6fM6-91" value="&lt;div&gt;...&lt;/div&gt;" style="text;html=1;align=center;verticalAlign=middle;whiteSpace=wrap;rounded=0;fontSize=18;" parent="e3jmrKQqIBXuTLJc6fM6-104" vertex="1">
          <mxGeometry x="480" y="65" width="40" height="30" as="geometry" />
        </mxCell>
        <mxCell id="e3jmrKQqIBXuTLJc6fM6-94" value="" style="shape=curlyBracket;whiteSpace=wrap;html=1;rounded=1;labelPosition=left;verticalLabelPosition=middle;align=right;verticalAlign=middle;rotation=90;" parent="e3jmrKQqIBXuTLJc6fM6-104" vertex="1">
          <mxGeometry x="430" y="-160" width="20" height="400" as="geometry" />
        </mxCell>
        <mxCell id="e3jmrKQqIBXuTLJc6fM6-95" value="64" style="text;html=1;align=center;verticalAlign=middle;whiteSpace=wrap;rounded=0;fontSize=18;" parent="e3jmrKQqIBXuTLJc6fM6-104" vertex="1">
          <mxGeometry x="420" width="40" height="30" as="geometry" />
        </mxCell>
        <mxCell id="e3jmrKQqIBXuTLJc6fM6-102" style="edgeStyle=orthogonalEdgeStyle;rounded=0;orthogonalLoop=1;jettySize=auto;html=1;exitX=1;exitY=0.5;exitDx=0;exitDy=0;entryX=0;entryY=0.5;entryDx=0;entryDy=0;" parent="e3jmrKQqIBXuTLJc6fM6-104" source="e3jmrKQqIBXuTLJc6fM6-84" target="e3jmrKQqIBXuTLJc6fM6-91" edge="1">
          <mxGeometry relative="1" as="geometry" />
        </mxCell>
        <mxCell id="e3jmrKQqIBXuTLJc6fM6-125" value="" style="group" parent="MM-OqsWLesy-Uxxo-XAG-184" vertex="1" connectable="0">
          <mxGeometry x="470" y="-50" width="250" height="150" as="geometry" />
        </mxCell>
        <mxCell id="e3jmrKQqIBXuTLJc6fM6-108" value="&lt;div align=&quot;left&quot;&gt;&lt;br&gt;&lt;/div&gt;" style="rounded=0;whiteSpace=wrap;html=1;container=0;" parent="e3jmrKQqIBXuTLJc6fM6-125" vertex="1">
          <mxGeometry width="250" height="150" as="geometry" />
        </mxCell>
        <mxCell id="e3jmrKQqIBXuTLJc6fM6-332" value="" style="edgeStyle=orthogonalEdgeStyle;rounded=0;orthogonalLoop=1;jettySize=auto;html=1;" parent="e3jmrKQqIBXuTLJc6fM6-125" source="e3jmrKQqIBXuTLJc6fM6-109" target="e3jmrKQqIBXuTLJc6fM6-112" edge="1">
          <mxGeometry relative="1" as="geometry" />
        </mxCell>
        <mxCell id="e3jmrKQqIBXuTLJc6fM6-109" value="htables_t" style="text;html=1;align=left;verticalAlign=middle;whiteSpace=wrap;rounded=0;fontSize=18;container=0;" parent="e3jmrKQqIBXuTLJc6fM6-125" vertex="1">
          <mxGeometry x="10" y="10" width="160" height="30" as="geometry" />
        </mxCell>
        <mxCell id="e3jmrKQqIBXuTLJc6fM6-111" value="" style="rounded=0;whiteSpace=wrap;html=1;container=0;fillColor=#b1ddf0;strokeColor=#10739e;" parent="e3jmrKQqIBXuTLJc6fM6-125" vertex="1">
          <mxGeometry x="40" y="50" width="200" height="40" as="geometry" />
        </mxCell>
        <mxCell id="e3jmrKQqIBXuTLJc6fM6-112" value="huffman_tree_t *dc[4]" style="text;html=1;align=left;verticalAlign=middle;whiteSpace=wrap;rounded=0;fontSize=18;container=0;" parent="e3jmrKQqIBXuTLJc6fM6-125" vertex="1">
          <mxGeometry x="52.5" y="55" width="177.975" height="30" as="geometry" />
        </mxCell>
        <mxCell id="e3jmrKQqIBXuTLJc6fM6-114" value="" style="rounded=0;whiteSpace=wrap;html=1;container=0;fillColor=#b1ddf0;strokeColor=#10739e;" parent="e3jmrKQqIBXuTLJc6fM6-125" vertex="1">
          <mxGeometry x="40" y="100" width="200" height="40" as="geometry" />
        </mxCell>
        <mxCell id="e3jmrKQqIBXuTLJc6fM6-115" value="huffman_tree_t *ac[4]" style="text;html=1;align=left;verticalAlign=middle;whiteSpace=wrap;rounded=0;fontSize=18;container=0;" parent="e3jmrKQqIBXuTLJc6fM6-125" vertex="1">
          <mxGeometry x="52.5" y="105" width="177.975" height="30" as="geometry" />
        </mxCell>
        <mxCell id="e3jmrKQqIBXuTLJc6fM6-147" style="edgeStyle=orthogonalEdgeStyle;rounded=0;orthogonalLoop=1;jettySize=auto;html=1;exitX=1;exitY=0.5;exitDx=0;exitDy=0;entryX=0;entryY=0.5;entryDx=0;entryDy=0;" parent="MM-OqsWLesy-Uxxo-XAG-184" source="-bkXF7WFPklkNgfoujYP-11" target="e3jmrKQqIBXuTLJc6fM6-108" edge="1">
          <mxGeometry relative="1" as="geometry" />
        </mxCell>
        <mxCell id="e3jmrKQqIBXuTLJc6fM6-160" style="edgeStyle=orthogonalEdgeStyle;rounded=0;orthogonalLoop=1;jettySize=auto;html=1;exitX=1;exitY=0.5;exitDx=0;exitDy=0;entryX=0;entryY=0.25;entryDx=0;entryDy=0;" parent="MM-OqsWLesy-Uxxo-XAG-184" source="-bkXF7WFPklkNgfoujYP-15" target="e3jmrKQqIBXuTLJc6fM6-150" edge="1">
          <mxGeometry relative="1" as="geometry">
            <Array as="points">
              <mxPoint x="410" y="310" />
              <mxPoint x="410" y="253" />
            </Array>
          </mxGeometry>
        </mxCell>
        <mxCell id="e3jmrKQqIBXuTLJc6fM6-265" value="" style="group" parent="MM-OqsWLesy-Uxxo-XAG-184" vertex="1" connectable="0">
          <mxGeometry x="470" y="-470" width="530" height="300" as="geometry" />
        </mxCell>
        <mxCell id="e3jmrKQqIBXuTLJc6fM6-4" value="" style="group" parent="e3jmrKQqIBXuTLJc6fM6-265" vertex="1" connectable="0">
          <mxGeometry x="320" y="70" width="150" height="50" as="geometry" />
        </mxCell>
        <mxCell id="e3jmrKQqIBXuTLJc6fM6-1" value="" style="rounded=0;whiteSpace=wrap;html=1;container=0;fillColor=#b1ddf0;strokeColor=#10739e;" parent="e3jmrKQqIBXuTLJc6fM6-4" vertex="1">
          <mxGeometry width="150" height="50" as="geometry" />
        </mxCell>
        <mxCell id="e3jmrKQqIBXuTLJc6fM6-2" value="&lt;div align=&quot;left&quot;&gt;qtable_prec_t *&lt;/div&gt;" style="text;html=1;align=left;verticalAlign=middle;whiteSpace=wrap;rounded=0;fontSize=18;container=0;" parent="e3jmrKQqIBXuTLJc6fM6-4" vertex="1">
          <mxGeometry x="10" y="10" width="130" height="30" as="geometry" />
        </mxCell>
        <mxCell id="e3jmrKQqIBXuTLJc6fM6-23" value="" style="group" parent="e3jmrKQqIBXuTLJc6fM6-265" vertex="1" connectable="0">
          <mxGeometry y="150" width="210" height="150" as="geometry" />
        </mxCell>
        <mxCell id="e3jmrKQqIBXuTLJc6fM6-16" value="&lt;div align=&quot;left&quot;&gt;&lt;br&gt;&lt;/div&gt;" style="rounded=0;whiteSpace=wrap;html=1;container=0;" parent="e3jmrKQqIBXuTLJc6fM6-23" vertex="1">
          <mxGeometry width="210" height="150" as="geometry" />
        </mxCell>
        <mxCell id="e3jmrKQqIBXuTLJc6fM6-17" value="qtable_prec_t" style="text;html=1;align=left;verticalAlign=middle;whiteSpace=wrap;rounded=0;fontSize=18;container=0;" parent="e3jmrKQqIBXuTLJc6fM6-23" vertex="1">
          <mxGeometry x="10" y="10" width="160" height="30" as="geometry" />
        </mxCell>
        <mxCell id="e3jmrKQqIBXuTLJc6fM6-14" value="" style="group" parent="e3jmrKQqIBXuTLJc6fM6-23" vertex="1" connectable="0">
          <mxGeometry x="40" y="50" width="160" height="40" as="geometry" />
        </mxCell>
        <mxCell id="e3jmrKQqIBXuTLJc6fM6-10" value="" style="rounded=0;whiteSpace=wrap;html=1;container=0;" parent="e3jmrKQqIBXuTLJc6fM6-14" vertex="1">
          <mxGeometry width="160" height="40" as="geometry" />
        </mxCell>
        <mxCell id="e3jmrKQqIBXuTLJc6fM6-11" value="uint8_t precision" style="text;html=1;align=left;verticalAlign=middle;whiteSpace=wrap;rounded=0;fontSize=18;container=0;" parent="e3jmrKQqIBXuTLJc6fM6-14" vertex="1">
          <mxGeometry x="10" y="5" width="142.38" height="30" as="geometry" />
        </mxCell>
        <mxCell id="e3jmrKQqIBXuTLJc6fM6-22" value="" style="group" parent="e3jmrKQqIBXuTLJc6fM6-23" vertex="1" connectable="0">
          <mxGeometry x="40" y="100" width="160" height="40" as="geometry" />
        </mxCell>
        <mxCell id="e3jmrKQqIBXuTLJc6fM6-19" value="" style="rounded=0;whiteSpace=wrap;html=1;container=0;fillColor=#b1ddf0;strokeColor=#10739e;" parent="e3jmrKQqIBXuTLJc6fM6-22" vertex="1">
          <mxGeometry width="160" height="40" as="geometry" />
        </mxCell>
        <mxCell id="e3jmrKQqIBXuTLJc6fM6-20" value="qtable_t *qtable" style="text;html=1;align=left;verticalAlign=middle;whiteSpace=wrap;rounded=0;fontSize=18;container=0;" parent="e3jmrKQqIBXuTLJc6fM6-22" vertex="1">
          <mxGeometry x="10" y="5" width="142.38" height="30" as="geometry" />
        </mxCell>
        <mxCell id="e3jmrKQqIBXuTLJc6fM6-47" value="" style="group" parent="e3jmrKQqIBXuTLJc6fM6-265" vertex="1" connectable="0">
          <mxGeometry y="70" width="150" height="50" as="geometry" />
        </mxCell>
        <mxCell id="e3jmrKQqIBXuTLJc6fM6-48" value="" style="rounded=0;whiteSpace=wrap;html=1;container=0;fillColor=#b1ddf0;strokeColor=#10739e;" parent="e3jmrKQqIBXuTLJc6fM6-47" vertex="1">
          <mxGeometry width="150" height="50" as="geometry" />
        </mxCell>
        <mxCell id="e3jmrKQqIBXuTLJc6fM6-49" value="&lt;div align=&quot;left&quot;&gt;qtable_prec_t *&lt;/div&gt;" style="text;html=1;align=left;verticalAlign=middle;whiteSpace=wrap;rounded=0;fontSize=18;container=0;" parent="e3jmrKQqIBXuTLJc6fM6-47" vertex="1">
          <mxGeometry x="10" y="10" width="130" height="30" as="geometry" />
        </mxCell>
        <mxCell id="e3jmrKQqIBXuTLJc6fM6-52" value="" style="group" parent="e3jmrKQqIBXuTLJc6fM6-265" vertex="1" connectable="0">
          <mxGeometry x="320" y="150" width="210" height="150" as="geometry" />
        </mxCell>
        <mxCell id="e3jmrKQqIBXuTLJc6fM6-53" value="&lt;div align=&quot;left&quot;&gt;&lt;br&gt;&lt;/div&gt;" style="rounded=0;whiteSpace=wrap;html=1;container=0;" parent="e3jmrKQqIBXuTLJc6fM6-52" vertex="1">
          <mxGeometry width="210" height="150" as="geometry" />
        </mxCell>
        <mxCell id="e3jmrKQqIBXuTLJc6fM6-54" value="qtable_prec_t" style="text;html=1;align=left;verticalAlign=middle;whiteSpace=wrap;rounded=0;fontSize=18;container=0;" parent="e3jmrKQqIBXuTLJc6fM6-52" vertex="1">
          <mxGeometry x="10" y="10" width="160" height="30" as="geometry" />
        </mxCell>
        <mxCell id="e3jmrKQqIBXuTLJc6fM6-55" value="" style="group" parent="e3jmrKQqIBXuTLJc6fM6-52" vertex="1" connectable="0">
          <mxGeometry x="40" y="50" width="160" height="40" as="geometry" />
        </mxCell>
        <mxCell id="e3jmrKQqIBXuTLJc6fM6-56" value="" style="rounded=0;whiteSpace=wrap;html=1;container=0;" parent="e3jmrKQqIBXuTLJc6fM6-55" vertex="1">
          <mxGeometry width="160" height="40" as="geometry" />
        </mxCell>
        <mxCell id="e3jmrKQqIBXuTLJc6fM6-57" value="uint8_t precision" style="text;html=1;align=left;verticalAlign=middle;whiteSpace=wrap;rounded=0;fontSize=18;container=0;" parent="e3jmrKQqIBXuTLJc6fM6-55" vertex="1">
          <mxGeometry x="10" y="5" width="142.38" height="30" as="geometry" />
        </mxCell>
        <mxCell id="e3jmrKQqIBXuTLJc6fM6-58" value="" style="group" parent="e3jmrKQqIBXuTLJc6fM6-52" vertex="1" connectable="0">
          <mxGeometry x="40" y="100" width="160" height="40" as="geometry" />
        </mxCell>
        <mxCell id="e3jmrKQqIBXuTLJc6fM6-302" style="edgeStyle=orthogonalEdgeStyle;rounded=0;orthogonalLoop=1;jettySize=auto;html=1;exitX=0.5;exitY=1;exitDx=0;exitDy=0;dashed=1;" parent="e3jmrKQqIBXuTLJc6fM6-58" source="e3jmrKQqIBXuTLJc6fM6-59" edge="1">
          <mxGeometry relative="1" as="geometry">
            <mxPoint x="80" y="70" as="targetPoint" />
          </mxGeometry>
        </mxCell>
        <mxCell id="e3jmrKQqIBXuTLJc6fM6-59" value="" style="rounded=0;whiteSpace=wrap;html=1;container=0;fillColor=#b1ddf0;strokeColor=#10739e;" parent="e3jmrKQqIBXuTLJc6fM6-58" vertex="1">
          <mxGeometry width="160" height="40" as="geometry" />
        </mxCell>
        <mxCell id="e3jmrKQqIBXuTLJc6fM6-60" value="qtable_t *qtable" style="text;html=1;align=left;verticalAlign=middle;whiteSpace=wrap;rounded=0;fontSize=18;container=0;" parent="e3jmrKQqIBXuTLJc6fM6-58" vertex="1">
          <mxGeometry x="10" y="5" width="142.38" height="30" as="geometry" />
        </mxCell>
        <mxCell id="e3jmrKQqIBXuTLJc6fM6-64" style="edgeStyle=orthogonalEdgeStyle;rounded=0;orthogonalLoop=1;jettySize=auto;html=1;entryX=0;entryY=0.5;entryDx=0;entryDy=0;" parent="e3jmrKQqIBXuTLJc6fM6-265" source="e3jmrKQqIBXuTLJc6fM6-61" target="e3jmrKQqIBXuTLJc6fM6-1" edge="1">
          <mxGeometry relative="1" as="geometry" />
        </mxCell>
        <mxCell id="e3jmrKQqIBXuTLJc6fM6-61" value="&lt;div&gt;...&lt;/div&gt;" style="text;html=1;align=center;verticalAlign=middle;whiteSpace=wrap;rounded=0;fontSize=18;" parent="e3jmrKQqIBXuTLJc6fM6-265" vertex="1">
          <mxGeometry x="210" y="80" width="40" height="30" as="geometry" />
        </mxCell>
        <mxCell id="e3jmrKQqIBXuTLJc6fM6-63" style="edgeStyle=orthogonalEdgeStyle;rounded=0;orthogonalLoop=1;jettySize=auto;html=1;entryX=0;entryY=0.5;entryDx=0;entryDy=0;" parent="e3jmrKQqIBXuTLJc6fM6-265" source="e3jmrKQqIBXuTLJc6fM6-48" target="e3jmrKQqIBXuTLJc6fM6-61" edge="1">
          <mxGeometry relative="1" as="geometry" />
        </mxCell>
        <mxCell id="e3jmrKQqIBXuTLJc6fM6-70" style="edgeStyle=orthogonalEdgeStyle;rounded=0;orthogonalLoop=1;jettySize=auto;html=1;exitX=0.5;exitY=1;exitDx=0;exitDy=0;entryX=0.25;entryY=0;entryDx=0;entryDy=0;" parent="e3jmrKQqIBXuTLJc6fM6-265" source="e3jmrKQqIBXuTLJc6fM6-1" target="e3jmrKQqIBXuTLJc6fM6-53" edge="1">
          <mxGeometry relative="1" as="geometry" />
        </mxCell>
        <mxCell id="e3jmrKQqIBXuTLJc6fM6-71" style="edgeStyle=orthogonalEdgeStyle;rounded=0;orthogonalLoop=1;jettySize=auto;html=1;exitX=0.5;exitY=1;exitDx=0;exitDy=0;entryX=0.25;entryY=0;entryDx=0;entryDy=0;" parent="e3jmrKQqIBXuTLJc6fM6-265" source="e3jmrKQqIBXuTLJc6fM6-48" target="e3jmrKQqIBXuTLJc6fM6-16" edge="1">
          <mxGeometry relative="1" as="geometry" />
        </mxCell>
        <mxCell id="e3jmrKQqIBXuTLJc6fM6-73" value="" style="shape=curlyBracket;whiteSpace=wrap;html=1;rounded=1;labelPosition=left;verticalLabelPosition=middle;align=right;verticalAlign=middle;rotation=90;" parent="e3jmrKQqIBXuTLJc6fM6-265" vertex="1">
          <mxGeometry x="225" y="-190" width="20" height="470" as="geometry" />
        </mxCell>
        <mxCell id="e3jmrKQqIBXuTLJc6fM6-74" value="4" style="text;html=1;align=center;verticalAlign=middle;whiteSpace=wrap;rounded=0;fontSize=18;" parent="e3jmrKQqIBXuTLJc6fM6-265" vertex="1">
          <mxGeometry x="210" width="40" height="30" as="geometry" />
        </mxCell>
        <mxCell id="e3jmrKQqIBXuTLJc6fM6-266" value="" style="group" parent="MM-OqsWLesy-Uxxo-XAG-184" vertex="1" connectable="0">
          <mxGeometry x="470" y="190" width="690" height="310" as="geometry" />
        </mxCell>
        <mxCell id="e3jmrKQqIBXuTLJc6fM6-150" value="&lt;div align=&quot;left&quot;&gt;&lt;br&gt;&lt;/div&gt;" style="rounded=0;whiteSpace=wrap;html=1;container=0;" parent="e3jmrKQqIBXuTLJc6fM6-266" vertex="1">
          <mxGeometry width="260" height="250" as="geometry" />
        </mxCell>
        <mxCell id="e3jmrKQqIBXuTLJc6fM6-151" value="comps_t" style="text;html=1;align=left;verticalAlign=middle;whiteSpace=wrap;rounded=0;fontSize=18;container=0;" parent="e3jmrKQqIBXuTLJc6fM6-266" vertex="1">
          <mxGeometry x="10" y="10" width="160" height="30" as="geometry" />
        </mxCell>
        <mxCell id="e3jmrKQqIBXuTLJc6fM6-152" value="" style="rounded=0;whiteSpace=wrap;html=1;container=0;" parent="e3jmrKQqIBXuTLJc6fM6-266" vertex="1">
          <mxGeometry x="40" y="50" width="150" height="40" as="geometry" />
        </mxCell>
        <mxCell id="e3jmrKQqIBXuTLJc6fM6-153" value="uint8_t nb" style="text;html=1;align=left;verticalAlign=middle;whiteSpace=wrap;rounded=0;fontSize=18;container=0;" parent="e3jmrKQqIBXuTLJc6fM6-266" vertex="1">
          <mxGeometry x="52.5" y="55" width="87.5" height="30" as="geometry" />
        </mxCell>
        <mxCell id="e3jmrKQqIBXuTLJc6fM6-154" value="" style="rounded=0;whiteSpace=wrap;html=1;container=0;fillColor=#b1ddf0;strokeColor=#10739e;" parent="e3jmrKQqIBXuTLJc6fM6-266" vertex="1">
          <mxGeometry x="40" y="100" width="150" height="40" as="geometry" />
        </mxCell>
        <mxCell id="e3jmrKQqIBXuTLJc6fM6-176" style="edgeStyle=orthogonalEdgeStyle;rounded=0;orthogonalLoop=1;jettySize=auto;html=1;exitX=1;exitY=0.5;exitDx=0;exitDy=0;entryX=0;entryY=0.5;entryDx=0;entryDy=0;" parent="e3jmrKQqIBXuTLJc6fM6-266" source="e3jmrKQqIBXuTLJc6fM6-155" target="e3jmrKQqIBXuTLJc6fM6-164" edge="1">
          <mxGeometry relative="1" as="geometry">
            <mxPoint x="300" y="120" as="targetPoint" />
          </mxGeometry>
        </mxCell>
        <mxCell id="e3jmrKQqIBXuTLJc6fM6-155" value="uint8_t ordre[3]" style="text;html=1;align=left;verticalAlign=middle;whiteSpace=wrap;rounded=0;fontSize=18;container=0;" parent="e3jmrKQqIBXuTLJc6fM6-266" vertex="1">
          <mxGeometry x="52.5" y="105" width="137.5" height="30" as="geometry" />
        </mxCell>
        <mxCell id="e3jmrKQqIBXuTLJc6fM6-156" value="" style="rounded=0;whiteSpace=wrap;html=1;container=0;" parent="e3jmrKQqIBXuTLJc6fM6-266" vertex="1">
          <mxGeometry x="40" y="150" width="210" height="40" as="geometry" />
        </mxCell>
        <mxCell id="e3jmrKQqIBXuTLJc6fM6-157" value="uint8_t precision_comp" style="text;html=1;align=left;verticalAlign=middle;whiteSpace=wrap;rounded=0;fontSize=18;container=0;" parent="e3jmrKQqIBXuTLJc6fM6-266" vertex="1">
          <mxGeometry x="52.5" y="155" width="197.5" height="30" as="geometry" />
        </mxCell>
        <mxCell id="e3jmrKQqIBXuTLJc6fM6-181" style="edgeStyle=orthogonalEdgeStyle;rounded=0;orthogonalLoop=1;jettySize=auto;html=1;exitX=1;exitY=0.5;exitDx=0;exitDy=0;entryX=0;entryY=0.5;entryDx=0;entryDy=0;" parent="e3jmrKQqIBXuTLJc6fM6-266" source="e3jmrKQqIBXuTLJc6fM6-158" target="e3jmrKQqIBXuTLJc6fM6-178" edge="1">
          <mxGeometry relative="1" as="geometry" />
        </mxCell>
        <mxCell id="e3jmrKQqIBXuTLJc6fM6-158" value="" style="rounded=0;whiteSpace=wrap;html=1;container=0;fillColor=#b1ddf0;strokeColor=#10739e;" parent="e3jmrKQqIBXuTLJc6fM6-266" vertex="1">
          <mxGeometry x="40" y="200" width="210" height="40" as="geometry" />
        </mxCell>
        <mxCell id="e3jmrKQqIBXuTLJc6fM6-159" value="idcomp_t *comps[3]" style="text;html=1;align=left;verticalAlign=middle;whiteSpace=wrap;rounded=0;fontSize=18;container=0;" parent="e3jmrKQqIBXuTLJc6fM6-266" vertex="1">
          <mxGeometry x="52.5" y="205" width="167.5" height="30" as="geometry" />
        </mxCell>
        <mxCell id="e3jmrKQqIBXuTLJc6fM6-161" value="" style="group" parent="e3jmrKQqIBXuTLJc6fM6-266" vertex="1" connectable="0">
          <mxGeometry x="300" y="100" width="90" height="40" as="geometry" />
        </mxCell>
        <mxCell id="e3jmrKQqIBXuTLJc6fM6-162" style="edgeStyle=orthogonalEdgeStyle;rounded=0;orthogonalLoop=1;jettySize=auto;html=1;exitX=1;exitY=0.75;exitDx=0;exitDy=0;entryX=1;entryY=0.5;entryDx=0;entryDy=0;" parent="e3jmrKQqIBXuTLJc6fM6-161" source="e3jmrKQqIBXuTLJc6fM6-164" target="e3jmrKQqIBXuTLJc6fM6-165" edge="1">
          <mxGeometry relative="1" as="geometry" />
        </mxCell>
        <mxCell id="e3jmrKQqIBXuTLJc6fM6-164" value="" style="rounded=0;whiteSpace=wrap;html=1;container=0;" parent="e3jmrKQqIBXuTLJc6fM6-161" vertex="1">
          <mxGeometry width="90" height="40" as="geometry" />
        </mxCell>
        <mxCell id="e3jmrKQqIBXuTLJc6fM6-165" value="uint8_t" style="text;html=1;align=left;verticalAlign=middle;whiteSpace=wrap;rounded=0;fontSize=18;container=0;" parent="e3jmrKQqIBXuTLJc6fM6-161" vertex="1">
          <mxGeometry x="12.85714285714289" y="5" width="64.28571428571428" height="30" as="geometry" />
        </mxCell>
        <mxCell id="e3jmrKQqIBXuTLJc6fM6-166" value="" style="group" parent="e3jmrKQqIBXuTLJc6fM6-266" vertex="1" connectable="0">
          <mxGeometry x="420" y="100" width="90" height="40" as="geometry" />
        </mxCell>
        <mxCell id="e3jmrKQqIBXuTLJc6fM6-167" style="edgeStyle=orthogonalEdgeStyle;rounded=0;orthogonalLoop=1;jettySize=auto;html=1;exitX=1;exitY=0.75;exitDx=0;exitDy=0;entryX=1;entryY=0.5;entryDx=0;entryDy=0;" parent="e3jmrKQqIBXuTLJc6fM6-166" source="e3jmrKQqIBXuTLJc6fM6-169" target="e3jmrKQqIBXuTLJc6fM6-170" edge="1">
          <mxGeometry relative="1" as="geometry" />
        </mxCell>
        <mxCell id="e3jmrKQqIBXuTLJc6fM6-169" value="" style="rounded=0;whiteSpace=wrap;html=1;container=0;" parent="e3jmrKQqIBXuTLJc6fM6-166" vertex="1">
          <mxGeometry width="90" height="40" as="geometry" />
        </mxCell>
        <mxCell id="e3jmrKQqIBXuTLJc6fM6-170" value="uint8_t" style="text;html=1;align=left;verticalAlign=middle;whiteSpace=wrap;rounded=0;fontSize=18;container=0;" parent="e3jmrKQqIBXuTLJc6fM6-166" vertex="1">
          <mxGeometry x="12.85714285714289" y="5" width="64.28571428571428" height="30" as="geometry" />
        </mxCell>
        <mxCell id="e3jmrKQqIBXuTLJc6fM6-171" value="" style="group" parent="e3jmrKQqIBXuTLJc6fM6-266" vertex="1" connectable="0">
          <mxGeometry x="540" y="100" width="90" height="40" as="geometry" />
        </mxCell>
        <mxCell id="e3jmrKQqIBXuTLJc6fM6-172" style="edgeStyle=orthogonalEdgeStyle;rounded=0;orthogonalLoop=1;jettySize=auto;html=1;exitX=1;exitY=0.75;exitDx=0;exitDy=0;entryX=1;entryY=0.5;entryDx=0;entryDy=0;" parent="e3jmrKQqIBXuTLJc6fM6-171" source="e3jmrKQqIBXuTLJc6fM6-174" target="e3jmrKQqIBXuTLJc6fM6-175" edge="1">
          <mxGeometry relative="1" as="geometry" />
        </mxCell>
        <mxCell id="e3jmrKQqIBXuTLJc6fM6-174" value="" style="rounded=0;whiteSpace=wrap;html=1;container=0;" parent="e3jmrKQqIBXuTLJc6fM6-171" vertex="1">
          <mxGeometry width="90" height="40" as="geometry" />
        </mxCell>
        <mxCell id="e3jmrKQqIBXuTLJc6fM6-175" value="uint8_t" style="text;html=1;align=left;verticalAlign=middle;whiteSpace=wrap;rounded=0;fontSize=18;container=0;" parent="e3jmrKQqIBXuTLJc6fM6-171" vertex="1">
          <mxGeometry x="12.85714285714289" y="5" width="64.28571428571428" height="30" as="geometry" />
        </mxCell>
        <mxCell id="e3jmrKQqIBXuTLJc6fM6-163" style="edgeStyle=orthogonalEdgeStyle;rounded=0;orthogonalLoop=1;jettySize=auto;html=1;exitX=1;exitY=0.5;exitDx=0;exitDy=0;entryX=0;entryY=0.5;entryDx=0;entryDy=0;" parent="e3jmrKQqIBXuTLJc6fM6-266" source="e3jmrKQqIBXuTLJc6fM6-164" target="e3jmrKQqIBXuTLJc6fM6-169" edge="1">
          <mxGeometry relative="1" as="geometry">
            <mxPoint x="400" y="120" as="targetPoint" />
          </mxGeometry>
        </mxCell>
        <mxCell id="e3jmrKQqIBXuTLJc6fM6-168" style="edgeStyle=orthogonalEdgeStyle;rounded=0;orthogonalLoop=1;jettySize=auto;html=1;exitX=1;exitY=0.5;exitDx=0;exitDy=0;entryX=0;entryY=0.5;entryDx=0;entryDy=0;" parent="e3jmrKQqIBXuTLJc6fM6-266" source="e3jmrKQqIBXuTLJc6fM6-169" target="e3jmrKQqIBXuTLJc6fM6-174" edge="1">
          <mxGeometry relative="1" as="geometry">
            <mxPoint x="540" y="200" as="targetPoint" />
          </mxGeometry>
        </mxCell>
        <mxCell id="e3jmrKQqIBXuTLJc6fM6-180" value="" style="group" parent="e3jmrKQqIBXuTLJc6fM6-266" vertex="1" connectable="0">
          <mxGeometry x="300" y="200" width="110" height="40" as="geometry" />
        </mxCell>
        <mxCell id="e3jmrKQqIBXuTLJc6fM6-178" value="" style="rounded=0;whiteSpace=wrap;html=1;container=0;fillColor=#b1ddf0;strokeColor=#10739e;" parent="e3jmrKQqIBXuTLJc6fM6-180" vertex="1">
          <mxGeometry width="110" height="40" as="geometry" />
        </mxCell>
        <mxCell id="e3jmrKQqIBXuTLJc6fM6-179" value="idcomp_t *" style="text;html=1;align=left;verticalAlign=middle;whiteSpace=wrap;rounded=0;fontSize=18;container=0;" parent="e3jmrKQqIBXuTLJc6fM6-180" vertex="1">
          <mxGeometry x="12.5" y="5" width="97.5" height="30" as="geometry" />
        </mxCell>
        <mxCell id="e3jmrKQqIBXuTLJc6fM6-182" value="" style="group" parent="e3jmrKQqIBXuTLJc6fM6-266" vertex="1" connectable="0">
          <mxGeometry x="440" y="200" width="110" height="40" as="geometry" />
        </mxCell>
        <mxCell id="e3jmrKQqIBXuTLJc6fM6-183" value="" style="rounded=0;whiteSpace=wrap;html=1;container=0;fillColor=#b1ddf0;strokeColor=#10739e;" parent="e3jmrKQqIBXuTLJc6fM6-182" vertex="1">
          <mxGeometry width="110" height="40" as="geometry" />
        </mxCell>
        <mxCell id="e3jmrKQqIBXuTLJc6fM6-184" value="idcomp_t *" style="text;html=1;align=left;verticalAlign=middle;whiteSpace=wrap;rounded=0;fontSize=18;container=0;" parent="e3jmrKQqIBXuTLJc6fM6-182" vertex="1">
          <mxGeometry x="12.5" y="5" width="97.5" height="30" as="geometry" />
        </mxCell>
        <mxCell id="e3jmrKQqIBXuTLJc6fM6-185" value="" style="group" parent="e3jmrKQqIBXuTLJc6fM6-266" vertex="1" connectable="0">
          <mxGeometry x="580" y="200" width="110" height="40" as="geometry" />
        </mxCell>
        <mxCell id="e3jmrKQqIBXuTLJc6fM6-186" value="" style="rounded=0;whiteSpace=wrap;html=1;container=0;fillColor=#b1ddf0;strokeColor=#10739e;" parent="e3jmrKQqIBXuTLJc6fM6-185" vertex="1">
          <mxGeometry width="110" height="40" as="geometry" />
        </mxCell>
        <mxCell id="e3jmrKQqIBXuTLJc6fM6-187" value="idcomp_t *" style="text;html=1;align=left;verticalAlign=middle;whiteSpace=wrap;rounded=0;fontSize=18;container=0;" parent="e3jmrKQqIBXuTLJc6fM6-185" vertex="1">
          <mxGeometry x="12.5" y="5" width="97.5" height="30" as="geometry" />
        </mxCell>
        <mxCell id="e3jmrKQqIBXuTLJc6fM6-188" style="edgeStyle=orthogonalEdgeStyle;rounded=0;orthogonalLoop=1;jettySize=auto;html=1;exitX=1;exitY=0.5;exitDx=0;exitDy=0;entryX=0;entryY=0.5;entryDx=0;entryDy=0;" parent="e3jmrKQqIBXuTLJc6fM6-266" source="e3jmrKQqIBXuTLJc6fM6-179" target="e3jmrKQqIBXuTLJc6fM6-183" edge="1">
          <mxGeometry relative="1" as="geometry" />
        </mxCell>
        <mxCell id="e3jmrKQqIBXuTLJc6fM6-189" style="edgeStyle=orthogonalEdgeStyle;rounded=0;orthogonalLoop=1;jettySize=auto;html=1;exitX=1;exitY=0.5;exitDx=0;exitDy=0;entryX=0;entryY=0.5;entryDx=0;entryDy=0;" parent="e3jmrKQqIBXuTLJc6fM6-266" source="e3jmrKQqIBXuTLJc6fM6-184" target="e3jmrKQqIBXuTLJc6fM6-186" edge="1">
          <mxGeometry relative="1" as="geometry" />
        </mxCell>
        <mxCell id="e3jmrKQqIBXuTLJc6fM6-200" value="" style="group" parent="e3jmrKQqIBXuTLJc6fM6-266" vertex="1" connectable="0">
          <mxGeometry x="300" y="270" width="100" height="40" as="geometry" />
        </mxCell>
        <mxCell id="e3jmrKQqIBXuTLJc6fM6-201" style="edgeStyle=orthogonalEdgeStyle;rounded=0;orthogonalLoop=1;jettySize=auto;html=1;exitX=1;exitY=0.75;exitDx=0;exitDy=0;entryX=1;entryY=0.5;entryDx=0;entryDy=0;" parent="e3jmrKQqIBXuTLJc6fM6-200" source="e3jmrKQqIBXuTLJc6fM6-202" target="e3jmrKQqIBXuTLJc6fM6-203" edge="1">
          <mxGeometry relative="1" as="geometry" />
        </mxCell>
        <mxCell id="e3jmrKQqIBXuTLJc6fM6-202" value="" style="rounded=0;whiteSpace=wrap;html=1;container=0;" parent="e3jmrKQqIBXuTLJc6fM6-200" vertex="1">
          <mxGeometry width="100" height="40" as="geometry" />
        </mxCell>
        <mxCell id="e3jmrKQqIBXuTLJc6fM6-203" value="idcomp_t" style="text;html=1;align=left;verticalAlign=middle;whiteSpace=wrap;rounded=0;fontSize=18;container=0;" parent="e3jmrKQqIBXuTLJc6fM6-200" vertex="1">
          <mxGeometry x="12.85714285714289" y="5" width="64.28571428571428" height="30" as="geometry" />
        </mxCell>
        <mxCell id="e3jmrKQqIBXuTLJc6fM6-204" style="edgeStyle=orthogonalEdgeStyle;rounded=0;orthogonalLoop=1;jettySize=auto;html=1;exitX=0.5;exitY=1;exitDx=0;exitDy=0;entryX=0.622;entryY=-0.025;entryDx=0;entryDy=0;entryPerimeter=0;" parent="e3jmrKQqIBXuTLJc6fM6-266" source="e3jmrKQqIBXuTLJc6fM6-178" target="e3jmrKQqIBXuTLJc6fM6-202" edge="1">
          <mxGeometry relative="1" as="geometry" />
        </mxCell>
        <mxCell id="e3jmrKQqIBXuTLJc6fM6-205" value="" style="group" parent="e3jmrKQqIBXuTLJc6fM6-266" vertex="1" connectable="0">
          <mxGeometry x="440" y="270" width="100" height="40" as="geometry" />
        </mxCell>
        <mxCell id="e3jmrKQqIBXuTLJc6fM6-206" style="edgeStyle=orthogonalEdgeStyle;rounded=0;orthogonalLoop=1;jettySize=auto;html=1;exitX=1;exitY=0.75;exitDx=0;exitDy=0;entryX=1;entryY=0.5;entryDx=0;entryDy=0;" parent="e3jmrKQqIBXuTLJc6fM6-205" source="e3jmrKQqIBXuTLJc6fM6-207" target="e3jmrKQqIBXuTLJc6fM6-208" edge="1">
          <mxGeometry relative="1" as="geometry" />
        </mxCell>
        <mxCell id="e3jmrKQqIBXuTLJc6fM6-306" style="edgeStyle=orthogonalEdgeStyle;rounded=0;orthogonalLoop=1;jettySize=auto;html=1;exitX=0.5;exitY=1;exitDx=0;exitDy=0;dashed=1;" parent="e3jmrKQqIBXuTLJc6fM6-205" source="e3jmrKQqIBXuTLJc6fM6-207" edge="1">
          <mxGeometry relative="1" as="geometry">
            <mxPoint x="50" y="65" as="targetPoint" />
          </mxGeometry>
        </mxCell>
        <mxCell id="e3jmrKQqIBXuTLJc6fM6-207" value="" style="rounded=0;whiteSpace=wrap;html=1;container=0;" parent="e3jmrKQqIBXuTLJc6fM6-205" vertex="1">
          <mxGeometry width="100" height="40" as="geometry" />
        </mxCell>
        <mxCell id="e3jmrKQqIBXuTLJc6fM6-208" value="idcomp_t" style="text;html=1;align=left;verticalAlign=middle;whiteSpace=wrap;rounded=0;fontSize=18;container=0;" parent="e3jmrKQqIBXuTLJc6fM6-205" vertex="1">
          <mxGeometry x="12.85714285714289" y="5" width="64.28571428571428" height="30" as="geometry" />
        </mxCell>
        <mxCell id="e3jmrKQqIBXuTLJc6fM6-210" value="" style="group" parent="e3jmrKQqIBXuTLJc6fM6-266" vertex="1" connectable="0">
          <mxGeometry x="580" y="270" width="100" height="40" as="geometry" />
        </mxCell>
        <mxCell id="e3jmrKQqIBXuTLJc6fM6-211" style="edgeStyle=orthogonalEdgeStyle;rounded=0;orthogonalLoop=1;jettySize=auto;html=1;exitX=1;exitY=0.75;exitDx=0;exitDy=0;entryX=1;entryY=0.5;entryDx=0;entryDy=0;" parent="e3jmrKQqIBXuTLJc6fM6-210" source="e3jmrKQqIBXuTLJc6fM6-212" target="e3jmrKQqIBXuTLJc6fM6-213" edge="1">
          <mxGeometry relative="1" as="geometry" />
        </mxCell>
        <mxCell id="e3jmrKQqIBXuTLJc6fM6-307" style="edgeStyle=orthogonalEdgeStyle;rounded=0;orthogonalLoop=1;jettySize=auto;html=1;exitX=0.5;exitY=1;exitDx=0;exitDy=0;dashed=1;" parent="e3jmrKQqIBXuTLJc6fM6-210" source="e3jmrKQqIBXuTLJc6fM6-212" edge="1">
          <mxGeometry relative="1" as="geometry">
            <mxPoint x="49.969696969697" y="65" as="targetPoint" />
          </mxGeometry>
        </mxCell>
        <mxCell id="e3jmrKQqIBXuTLJc6fM6-212" value="" style="rounded=0;whiteSpace=wrap;html=1;container=0;" parent="e3jmrKQqIBXuTLJc6fM6-210" vertex="1">
          <mxGeometry width="100" height="40" as="geometry" />
        </mxCell>
        <mxCell id="e3jmrKQqIBXuTLJc6fM6-213" value="idcomp_t" style="text;html=1;align=left;verticalAlign=middle;whiteSpace=wrap;rounded=0;fontSize=18;container=0;" parent="e3jmrKQqIBXuTLJc6fM6-210" vertex="1">
          <mxGeometry x="12.85714285714289" y="5" width="64.28571428571428" height="30" as="geometry" />
        </mxCell>
        <mxCell id="e3jmrKQqIBXuTLJc6fM6-214" style="edgeStyle=orthogonalEdgeStyle;rounded=0;orthogonalLoop=1;jettySize=auto;html=1;exitX=0.5;exitY=1;exitDx=0;exitDy=0;entryX=0.5;entryY=0;entryDx=0;entryDy=0;" parent="e3jmrKQqIBXuTLJc6fM6-266" source="e3jmrKQqIBXuTLJc6fM6-183" target="e3jmrKQqIBXuTLJc6fM6-207" edge="1">
          <mxGeometry relative="1" as="geometry" />
        </mxCell>
        <mxCell id="e3jmrKQqIBXuTLJc6fM6-215" style="edgeStyle=orthogonalEdgeStyle;rounded=0;orthogonalLoop=1;jettySize=auto;html=1;exitX=0.5;exitY=1;exitDx=0;exitDy=0;entryX=0.5;entryY=0;entryDx=0;entryDy=0;" parent="e3jmrKQqIBXuTLJc6fM6-266" source="e3jmrKQqIBXuTLJc6fM6-186" target="e3jmrKQqIBXuTLJc6fM6-212" edge="1">
          <mxGeometry relative="1" as="geometry" />
        </mxCell>
        <mxCell id="e3jmrKQqIBXuTLJc6fM6-331" value="4" style="text;html=1;align=center;verticalAlign=middle;whiteSpace=wrap;rounded=0;fontSize=18;" parent="e3jmrKQqIBXuTLJc6fM6-266" vertex="1">
          <mxGeometry x="490" y="-50" width="40" height="30" as="geometry" />
        </mxCell>
        <mxCell id="e3jmrKQqIBXuTLJc6fM6-278" value="" style="group" parent="MM-OqsWLesy-Uxxo-XAG-184" vertex="1" connectable="0">
          <mxGeometry x="1090" y="670" width="220" height="400" as="geometry" />
        </mxCell>
        <mxCell id="e3jmrKQqIBXuTLJc6fM6-249" value="&lt;div align=&quot;left&quot;&gt;&lt;br&gt;&lt;/div&gt;" style="rounded=0;whiteSpace=wrap;html=1;container=0;" parent="e3jmrKQqIBXuTLJc6fM6-278" vertex="1">
          <mxGeometry width="220" height="400" as="geometry" />
        </mxCell>
        <mxCell id="e3jmrKQqIBXuTLJc6fM6-250" value="section_done_t" style="text;html=1;align=left;verticalAlign=middle;whiteSpace=wrap;rounded=0;fontSize=18;container=0;" parent="e3jmrKQqIBXuTLJc6fM6-278" vertex="1">
          <mxGeometry x="10" y="10" width="160" height="30" as="geometry" />
        </mxCell>
        <mxCell id="e3jmrKQqIBXuTLJc6fM6-251" value="" style="rounded=0;whiteSpace=wrap;html=1;container=0;" parent="e3jmrKQqIBXuTLJc6fM6-278" vertex="1">
          <mxGeometry x="40" y="50" width="150" height="40" as="geometry" />
        </mxCell>
        <mxCell id="e3jmrKQqIBXuTLJc6fM6-252" value="bool app0_done" style="text;html=1;align=left;verticalAlign=middle;whiteSpace=wrap;rounded=0;fontSize=18;container=0;" parent="e3jmrKQqIBXuTLJc6fM6-278" vertex="1">
          <mxGeometry x="52.5" y="55" width="147.5" height="30" as="geometry" />
        </mxCell>
        <mxCell id="e3jmrKQqIBXuTLJc6fM6-253" value="" style="rounded=0;whiteSpace=wrap;html=1;container=0;" parent="e3jmrKQqIBXuTLJc6fM6-278" vertex="1">
          <mxGeometry x="40" y="100" width="150" height="40" as="geometry" />
        </mxCell>
        <mxCell id="e3jmrKQqIBXuTLJc6fM6-254" value="bool sof_done" style="text;html=1;align=left;verticalAlign=middle;whiteSpace=wrap;rounded=0;fontSize=18;container=0;" parent="e3jmrKQqIBXuTLJc6fM6-278" vertex="1">
          <mxGeometry x="52.5" y="105" width="147.5" height="30" as="geometry" />
        </mxCell>
        <mxCell id="e3jmrKQqIBXuTLJc6fM6-255" value="" style="rounded=0;whiteSpace=wrap;html=1;container=0;" parent="e3jmrKQqIBXuTLJc6fM6-278" vertex="1">
          <mxGeometry x="40" y="150" width="170" height="40" as="geometry" />
        </mxCell>
        <mxCell id="e3jmrKQqIBXuTLJc6fM6-256" value="uint8_t num_sof" style="text;html=1;align=left;verticalAlign=middle;whiteSpace=wrap;rounded=0;fontSize=18;container=0;" parent="e3jmrKQqIBXuTLJc6fM6-278" vertex="1">
          <mxGeometry x="52.5" y="155" width="147.5" height="30" as="geometry" />
        </mxCell>
        <mxCell id="e3jmrKQqIBXuTLJc6fM6-267" value="" style="group" parent="e3jmrKQqIBXuTLJc6fM6-278" vertex="1" connectable="0">
          <mxGeometry x="40" y="200" width="150" height="40" as="geometry" />
        </mxCell>
        <mxCell id="e3jmrKQqIBXuTLJc6fM6-257" value="" style="rounded=0;whiteSpace=wrap;html=1;container=0;" parent="e3jmrKQqIBXuTLJc6fM6-267" vertex="1">
          <mxGeometry width="150" height="40" as="geometry" />
        </mxCell>
        <mxCell id="e3jmrKQqIBXuTLJc6fM6-258" value="bool dqt_done" style="text;html=1;align=left;verticalAlign=middle;whiteSpace=wrap;rounded=0;fontSize=18;container=0;" parent="e3jmrKQqIBXuTLJc6fM6-267" vertex="1">
          <mxGeometry x="12.5" y="5" width="127.5" height="30" as="geometry" />
        </mxCell>
        <mxCell id="e3jmrKQqIBXuTLJc6fM6-268" value="" style="group" parent="e3jmrKQqIBXuTLJc6fM6-278" vertex="1" connectable="0">
          <mxGeometry x="40" y="250" width="150" height="40" as="geometry" />
        </mxCell>
        <mxCell id="e3jmrKQqIBXuTLJc6fM6-269" value="" style="rounded=0;whiteSpace=wrap;html=1;container=0;" parent="e3jmrKQqIBXuTLJc6fM6-268" vertex="1">
          <mxGeometry width="150" height="40" as="geometry" />
        </mxCell>
        <mxCell id="e3jmrKQqIBXuTLJc6fM6-270" value="bool dht_done" style="text;html=1;align=left;verticalAlign=middle;whiteSpace=wrap;rounded=0;fontSize=18;container=0;" parent="e3jmrKQqIBXuTLJc6fM6-268" vertex="1">
          <mxGeometry x="12.5" y="5" width="127.5" height="30" as="geometry" />
        </mxCell>
        <mxCell id="e3jmrKQqIBXuTLJc6fM6-271" value="" style="group" parent="e3jmrKQqIBXuTLJc6fM6-278" vertex="1" connectable="0">
          <mxGeometry x="40" y="300" width="150" height="40" as="geometry" />
        </mxCell>
        <mxCell id="e3jmrKQqIBXuTLJc6fM6-272" value="" style="rounded=0;whiteSpace=wrap;html=1;container=0;" parent="e3jmrKQqIBXuTLJc6fM6-271" vertex="1">
          <mxGeometry width="150" height="40" as="geometry" />
        </mxCell>
        <mxCell id="e3jmrKQqIBXuTLJc6fM6-273" value="bool sos_done" style="text;html=1;align=left;verticalAlign=middle;whiteSpace=wrap;rounded=0;fontSize=18;container=0;" parent="e3jmrKQqIBXuTLJc6fM6-271" vertex="1">
          <mxGeometry x="12.5" y="5" width="127.5" height="30" as="geometry" />
        </mxCell>
        <mxCell id="e3jmrKQqIBXuTLJc6fM6-275" value="" style="group" parent="e3jmrKQqIBXuTLJc6fM6-278" vertex="1" connectable="0">
          <mxGeometry x="40" y="350" width="150" height="40" as="geometry" />
        </mxCell>
        <mxCell id="e3jmrKQqIBXuTLJc6fM6-276" value="" style="rounded=0;whiteSpace=wrap;html=1;container=0;" parent="e3jmrKQqIBXuTLJc6fM6-275" vertex="1">
          <mxGeometry width="150" height="40" as="geometry" />
        </mxCell>
        <mxCell id="e3jmrKQqIBXuTLJc6fM6-277" value="bool eoi_done" style="text;html=1;align=left;verticalAlign=middle;whiteSpace=wrap;rounded=0;fontSize=18;container=0;" parent="e3jmrKQqIBXuTLJc6fM6-275" vertex="1">
          <mxGeometry x="12.5" y="5" width="127.5" height="30" as="geometry" />
        </mxCell>
        <mxCell id="e3jmrKQqIBXuTLJc6fM6-287" value="" style="group" parent="MM-OqsWLesy-Uxxo-XAG-184" vertex="1" connectable="0">
          <mxGeometry x="690" y="680" width="240" height="390" as="geometry" />
        </mxCell>
        <mxCell id="e3jmrKQqIBXuTLJc6fM6-231" value="&lt;div align=&quot;left&quot;&gt;&lt;br&gt;&lt;/div&gt;" style="rounded=0;whiteSpace=wrap;html=1;container=0;" parent="e3jmrKQqIBXuTLJc6fM6-287" vertex="1">
          <mxGeometry width="240" height="390" as="geometry" />
        </mxCell>
        <mxCell id="e3jmrKQqIBXuTLJc6fM6-232" value="other_t" style="text;html=1;align=left;verticalAlign=middle;whiteSpace=wrap;rounded=0;fontSize=18;container=0;" parent="e3jmrKQqIBXuTLJc6fM6-287" vertex="1">
          <mxGeometry x="10" y="9.670329670329693" width="160" height="29.01098901098901" as="geometry" />
        </mxCell>
        <mxCell id="e3jmrKQqIBXuTLJc6fM6-233" value="" style="rounded=0;whiteSpace=wrap;html=1;container=0;fillColor=#b1ddf0;strokeColor=#10739e;" parent="e3jmrKQqIBXuTLJc6fM6-287" vertex="1">
          <mxGeometry x="40" y="48.35164835164835" width="110" height="38.68131868131867" as="geometry" />
        </mxCell>
        <mxCell id="e3jmrKQqIBXuTLJc6fM6-234" value="char jfif[5]" style="text;html=1;align=left;verticalAlign=middle;whiteSpace=wrap;rounded=0;fontSize=18;container=0;" parent="e3jmrKQqIBXuTLJc6fM6-287" vertex="1">
          <mxGeometry x="52.5" y="53.1868131868132" width="87.5" height="29.01098901098901" as="geometry" />
        </mxCell>
        <mxCell id="e3jmrKQqIBXuTLJc6fM6-235" value="" style="rounded=0;whiteSpace=wrap;html=1;container=0;" parent="e3jmrKQqIBXuTLJc6fM6-287" vertex="1">
          <mxGeometry x="40" y="96.7032967032967" width="190" height="38.68131868131867" as="geometry" />
        </mxCell>
        <mxCell id="e3jmrKQqIBXuTLJc6fM6-236" value="&amp;nbsp;uint8_t version_jfif_x" style="text;html=1;align=left;verticalAlign=middle;whiteSpace=wrap;rounded=0;fontSize=18;container=0;" parent="e3jmrKQqIBXuTLJc6fM6-287" vertex="1">
          <mxGeometry x="45" y="101.53846153846155" width="177.5" height="29.01098901098901" as="geometry" />
        </mxCell>
        <mxCell id="e3jmrKQqIBXuTLJc6fM6-239" value="" style="rounded=0;whiteSpace=wrap;html=1;container=0;" parent="e3jmrKQqIBXuTLJc6fM6-287" vertex="1">
          <mxGeometry x="40" y="193.4065934065934" width="110" height="38.68131868131867" as="geometry" />
        </mxCell>
        <mxCell id="e3jmrKQqIBXuTLJc6fM6-240" value="uint8_t ss" style="text;html=1;align=left;verticalAlign=middle;whiteSpace=wrap;rounded=0;fontSize=18;container=0;" parent="e3jmrKQqIBXuTLJc6fM6-287" vertex="1">
          <mxGeometry x="52.5" y="198.24175824175825" width="87.5" height="29.01098901098901" as="geometry" />
        </mxCell>
        <mxCell id="e3jmrKQqIBXuTLJc6fM6-279" value="" style="rounded=0;whiteSpace=wrap;html=1;container=0;" parent="e3jmrKQqIBXuTLJc6fM6-287" vertex="1">
          <mxGeometry x="40" y="145.05494505494505" width="190" height="38.68131868131867" as="geometry" />
        </mxCell>
        <mxCell id="e3jmrKQqIBXuTLJc6fM6-280" value="&amp;nbsp;uint8_t version_jfif_y" style="text;html=1;align=left;verticalAlign=middle;whiteSpace=wrap;rounded=0;fontSize=18;container=0;" parent="e3jmrKQqIBXuTLJc6fM6-287" vertex="1">
          <mxGeometry x="45" y="149.8901098901099" width="177.5" height="29.01098901098901" as="geometry" />
        </mxCell>
        <mxCell id="e3jmrKQqIBXuTLJc6fM6-281" value="" style="rounded=0;whiteSpace=wrap;html=1;container=0;" parent="e3jmrKQqIBXuTLJc6fM6-287" vertex="1">
          <mxGeometry x="40" y="241.75824175824175" width="110" height="38.68131868131867" as="geometry" />
        </mxCell>
        <mxCell id="e3jmrKQqIBXuTLJc6fM6-282" value="uint8_t se" style="text;html=1;align=left;verticalAlign=middle;whiteSpace=wrap;rounded=0;fontSize=18;container=0;" parent="e3jmrKQqIBXuTLJc6fM6-287" vertex="1">
          <mxGeometry x="52.5" y="246.5934065934066" width="87.5" height="29.01098901098901" as="geometry" />
        </mxCell>
        <mxCell id="e3jmrKQqIBXuTLJc6fM6-283" value="" style="rounded=0;whiteSpace=wrap;html=1;container=0;" parent="e3jmrKQqIBXuTLJc6fM6-287" vertex="1">
          <mxGeometry x="40" y="292.3065934065935" width="110" height="38.68131868131867" as="geometry" />
        </mxCell>
        <mxCell id="e3jmrKQqIBXuTLJc6fM6-284" value="uint8_t ah" style="text;html=1;align=left;verticalAlign=middle;whiteSpace=wrap;rounded=0;fontSize=18;container=0;" parent="e3jmrKQqIBXuTLJc6fM6-287" vertex="1">
          <mxGeometry x="52.5" y="297.1417582417582" width="87.5" height="29.01098901098901" as="geometry" />
        </mxCell>
        <mxCell id="e3jmrKQqIBXuTLJc6fM6-285" value="" style="rounded=0;whiteSpace=wrap;html=1;container=0;" parent="e3jmrKQqIBXuTLJc6fM6-287" vertex="1">
          <mxGeometry x="40" y="340.00043956043964" width="110" height="38.68131868131867" as="geometry" />
        </mxCell>
        <mxCell id="e3jmrKQqIBXuTLJc6fM6-286" value="uint8_t al" style="text;html=1;align=left;verticalAlign=middle;whiteSpace=wrap;rounded=0;fontSize=18;container=0;" parent="e3jmrKQqIBXuTLJc6fM6-287" vertex="1">
          <mxGeometry x="52.5" y="344.8356043956044" width="87.5" height="29.01098901098901" as="geometry" />
        </mxCell>
        <mxCell id="e3jmrKQqIBXuTLJc6fM6-288" value="" style="group" parent="MM-OqsWLesy-Uxxo-XAG-184" vertex="1" connectable="0">
          <mxGeometry x="1340" y="-30" width="620" height="150" as="geometry" />
        </mxCell>
        <mxCell id="e3jmrKQqIBXuTLJc6fM6-118" value="&lt;div align=&quot;left&quot;&gt;&lt;br&gt;&lt;/div&gt;" style="rounded=0;whiteSpace=wrap;html=1;container=0;" parent="e3jmrKQqIBXuTLJc6fM6-288" vertex="1">
          <mxGeometry width="240" height="150" as="geometry" />
        </mxCell>
        <mxCell id="e3jmrKQqIBXuTLJc6fM6-119" value="huffman_tree_t" style="text;html=1;align=left;verticalAlign=middle;whiteSpace=wrap;rounded=0;fontSize=18;container=0;" parent="e3jmrKQqIBXuTLJc6fM6-288" vertex="1">
          <mxGeometry x="10" y="10" width="160" height="30" as="geometry" />
        </mxCell>
        <mxCell id="e3jmrKQqIBXuTLJc6fM6-126" style="edgeStyle=orthogonalEdgeStyle;rounded=0;orthogonalLoop=1;jettySize=auto;html=1;exitX=1;exitY=0.5;exitDx=0;exitDy=0;entryX=0;entryY=0.5;entryDx=0;entryDy=0;" parent="e3jmrKQqIBXuTLJc6fM6-288" source="e3jmrKQqIBXuTLJc6fM6-120" target="e3jmrKQqIBXuTLJc6fM6-129" edge="1">
          <mxGeometry relative="1" as="geometry">
            <mxPoint x="370" y="60" as="targetPoint" />
          </mxGeometry>
        </mxCell>
        <mxCell id="e3jmrKQqIBXuTLJc6fM6-120" value="" style="rounded=0;whiteSpace=wrap;html=1;container=0;fillColor=#b1ddf0;strokeColor=#10739e;" parent="e3jmrKQqIBXuTLJc6fM6-288" vertex="1">
          <mxGeometry x="40" y="50" width="190" height="40" as="geometry" />
        </mxCell>
        <mxCell id="e3jmrKQqIBXuTLJc6fM6-121" value="huffman_tree_t *fils[2]" style="text;html=1;align=left;verticalAlign=middle;whiteSpace=wrap;rounded=0;fontSize=18;container=0;" parent="e3jmrKQqIBXuTLJc6fM6-288" vertex="1">
          <mxGeometry x="45" y="55" width="185" height="30" as="geometry" />
        </mxCell>
        <mxCell id="e3jmrKQqIBXuTLJc6fM6-122" value="" style="rounded=0;whiteSpace=wrap;html=1;container=0;" parent="e3jmrKQqIBXuTLJc6fM6-288" vertex="1">
          <mxGeometry x="40" y="100" width="130" height="40" as="geometry" />
        </mxCell>
        <mxCell id="e3jmrKQqIBXuTLJc6fM6-123" value="uint8_t symb" style="text;html=1;align=left;verticalAlign=middle;whiteSpace=wrap;rounded=0;fontSize=18;container=0;" parent="e3jmrKQqIBXuTLJc6fM6-288" vertex="1">
          <mxGeometry x="52.5" y="105" width="107.5" height="30" as="geometry" />
        </mxCell>
        <mxCell id="e3jmrKQqIBXuTLJc6fM6-131" value="" style="group" parent="e3jmrKQqIBXuTLJc6fM6-288" vertex="1" connectable="0">
          <mxGeometry x="290" y="10" width="140" height="40" as="geometry" />
        </mxCell>
        <mxCell id="e3jmrKQqIBXuTLJc6fM6-129" value="" style="rounded=0;whiteSpace=wrap;html=1;container=0;fillColor=#b1ddf0;strokeColor=#10739e;" parent="e3jmrKQqIBXuTLJc6fM6-131" vertex="1">
          <mxGeometry width="140" height="40" as="geometry" />
        </mxCell>
        <mxCell id="e3jmrKQqIBXuTLJc6fM6-130" value="huffman_tree_t*" style="text;html=1;align=left;verticalAlign=middle;whiteSpace=wrap;rounded=0;fontSize=18;container=0;" parent="e3jmrKQqIBXuTLJc6fM6-131" vertex="1">
          <mxGeometry x="5" y="5" width="135" height="30" as="geometry" />
        </mxCell>
        <mxCell id="e3jmrKQqIBXuTLJc6fM6-135" value="" style="group" parent="e3jmrKQqIBXuTLJc6fM6-288" vertex="1" connectable="0">
          <mxGeometry x="480" y="10" width="140" height="40" as="geometry" />
        </mxCell>
        <mxCell id="e3jmrKQqIBXuTLJc6fM6-136" value="" style="rounded=0;whiteSpace=wrap;html=1;container=0;fillColor=#b1ddf0;strokeColor=#10739e;" parent="e3jmrKQqIBXuTLJc6fM6-135" vertex="1">
          <mxGeometry width="140" height="40" as="geometry" />
        </mxCell>
        <mxCell id="e3jmrKQqIBXuTLJc6fM6-137" value="huffman_tree_t*" style="text;html=1;align=left;verticalAlign=middle;whiteSpace=wrap;rounded=0;fontSize=18;container=0;" parent="e3jmrKQqIBXuTLJc6fM6-135" vertex="1">
          <mxGeometry x="5" y="5" width="135" height="30" as="geometry" />
        </mxCell>
        <mxCell id="e3jmrKQqIBXuTLJc6fM6-138" style="edgeStyle=orthogonalEdgeStyle;rounded=0;orthogonalLoop=1;jettySize=auto;html=1;exitX=1;exitY=0.5;exitDx=0;exitDy=0;entryX=0;entryY=0.5;entryDx=0;entryDy=0;" parent="e3jmrKQqIBXuTLJc6fM6-288" source="e3jmrKQqIBXuTLJc6fM6-130" target="e3jmrKQqIBXuTLJc6fM6-136" edge="1">
          <mxGeometry relative="1" as="geometry">
            <mxPoint x="490" y="30" as="targetPoint" />
          </mxGeometry>
        </mxCell>
        <mxCell id="e3jmrKQqIBXuTLJc6fM6-140" value="" style="rounded=0;whiteSpace=wrap;html=1;container=0;" parent="e3jmrKQqIBXuTLJc6fM6-288" vertex="1">
          <mxGeometry x="290" y="80" width="140" height="40" as="geometry" />
        </mxCell>
        <mxCell id="e3jmrKQqIBXuTLJc6fM6-141" value="huffman_tree_t" style="text;html=1;align=left;verticalAlign=middle;whiteSpace=wrap;rounded=0;fontSize=18;container=0;" parent="e3jmrKQqIBXuTLJc6fM6-288" vertex="1">
          <mxGeometry x="295" y="85" width="135" height="30" as="geometry" />
        </mxCell>
        <mxCell id="e3jmrKQqIBXuTLJc6fM6-143" value="" style="rounded=0;whiteSpace=wrap;html=1;container=0;" parent="e3jmrKQqIBXuTLJc6fM6-288" vertex="1">
          <mxGeometry x="480" y="80" width="140" height="40" as="geometry" />
        </mxCell>
        <mxCell id="e3jmrKQqIBXuTLJc6fM6-144" value="huffman_tree_t" style="text;html=1;align=left;verticalAlign=middle;whiteSpace=wrap;rounded=0;fontSize=18;container=0;" parent="e3jmrKQqIBXuTLJc6fM6-288" vertex="1">
          <mxGeometry x="485" y="85" width="135" height="30" as="geometry" />
        </mxCell>
        <mxCell id="e3jmrKQqIBXuTLJc6fM6-145" style="edgeStyle=orthogonalEdgeStyle;rounded=0;orthogonalLoop=1;jettySize=auto;html=1;exitX=0.5;exitY=1;exitDx=0;exitDy=0;entryX=0.5;entryY=0;entryDx=0;entryDy=0;" parent="e3jmrKQqIBXuTLJc6fM6-288" source="e3jmrKQqIBXuTLJc6fM6-129" target="e3jmrKQqIBXuTLJc6fM6-140" edge="1">
          <mxGeometry relative="1" as="geometry" />
        </mxCell>
        <mxCell id="e3jmrKQqIBXuTLJc6fM6-146" style="edgeStyle=orthogonalEdgeStyle;rounded=0;orthogonalLoop=1;jettySize=auto;html=1;exitX=0.5;exitY=1;exitDx=0;exitDy=0;entryX=0.5;entryY=0;entryDx=0;entryDy=0;" parent="e3jmrKQqIBXuTLJc6fM6-288" source="e3jmrKQqIBXuTLJc6fM6-136" target="e3jmrKQqIBXuTLJc6fM6-143" edge="1">
          <mxGeometry relative="1" as="geometry" />
        </mxCell>
        <mxCell id="e3jmrKQqIBXuTLJc6fM6-289" value="" style="group" parent="MM-OqsWLesy-Uxxo-XAG-184" vertex="1" connectable="0">
          <mxGeometry x="1350" y="350" width="220" height="350" as="geometry" />
        </mxCell>
        <mxCell id="e3jmrKQqIBXuTLJc6fM6-190" value="&lt;div align=&quot;left&quot;&gt;&lt;br&gt;&lt;/div&gt;" style="rounded=0;whiteSpace=wrap;html=1;container=0;" parent="e3jmrKQqIBXuTLJc6fM6-289" vertex="1">
          <mxGeometry width="220" height="350" as="geometry" />
        </mxCell>
        <mxCell id="e3jmrKQqIBXuTLJc6fM6-191" value="idcomp_t" style="text;html=1;align=left;verticalAlign=middle;whiteSpace=wrap;rounded=0;fontSize=18;container=0;" parent="e3jmrKQqIBXuTLJc6fM6-289" vertex="1">
          <mxGeometry x="10" y="10" width="160" height="30" as="geometry" />
        </mxCell>
        <mxCell id="e3jmrKQqIBXuTLJc6fM6-192" value="" style="rounded=0;whiteSpace=wrap;html=1;container=0;" parent="e3jmrKQqIBXuTLJc6fM6-289" vertex="1">
          <mxGeometry x="40" y="50" width="110" height="40" as="geometry" />
        </mxCell>
        <mxCell id="e3jmrKQqIBXuTLJc6fM6-193" value="uint8_t idc" style="text;html=1;align=left;verticalAlign=middle;whiteSpace=wrap;rounded=0;fontSize=18;container=0;" parent="e3jmrKQqIBXuTLJc6fM6-289" vertex="1">
          <mxGeometry x="52.5" y="55" width="87.5" height="30" as="geometry" />
        </mxCell>
        <mxCell id="e3jmrKQqIBXuTLJc6fM6-216" value="" style="rounded=0;whiteSpace=wrap;html=1;container=0;" parent="e3jmrKQqIBXuTLJc6fM6-289" vertex="1">
          <mxGeometry x="40" y="100" width="170" height="40" as="geometry" />
        </mxCell>
        <mxCell id="e3jmrKQqIBXuTLJc6fM6-217" value="uint8_t hsampling" style="text;html=1;align=left;verticalAlign=middle;whiteSpace=wrap;rounded=0;fontSize=18;container=0;" parent="e3jmrKQqIBXuTLJc6fM6-289" vertex="1">
          <mxGeometry x="52.5" y="105" width="147.5" height="30" as="geometry" />
        </mxCell>
        <mxCell id="e3jmrKQqIBXuTLJc6fM6-220" value="" style="rounded=0;whiteSpace=wrap;html=1;container=0;" parent="e3jmrKQqIBXuTLJc6fM6-289" vertex="1">
          <mxGeometry x="40" y="150" width="170" height="40" as="geometry" />
        </mxCell>
        <mxCell id="e3jmrKQqIBXuTLJc6fM6-221" value="uint8_t vsampling" style="text;html=1;align=left;verticalAlign=middle;whiteSpace=wrap;rounded=0;fontSize=18;container=0;" parent="e3jmrKQqIBXuTLJc6fM6-289" vertex="1">
          <mxGeometry x="52.5" y="155" width="147.5" height="30" as="geometry" />
        </mxCell>
        <mxCell id="e3jmrKQqIBXuTLJc6fM6-222" value="" style="rounded=0;whiteSpace=wrap;html=1;container=0;" parent="e3jmrKQqIBXuTLJc6fM6-289" vertex="1">
          <mxGeometry x="40" y="200" width="130" height="40" as="geometry" />
        </mxCell>
        <mxCell id="e3jmrKQqIBXuTLJc6fM6-223" value="uint8_t idhdc" style="text;html=1;align=left;verticalAlign=middle;whiteSpace=wrap;rounded=0;fontSize=18;container=0;" parent="e3jmrKQqIBXuTLJc6fM6-289" vertex="1">
          <mxGeometry x="52.5" y="205" width="107.5" height="30" as="geometry" />
        </mxCell>
        <mxCell id="e3jmrKQqIBXuTLJc6fM6-226" value="" style="rounded=0;whiteSpace=wrap;html=1;container=0;" parent="e3jmrKQqIBXuTLJc6fM6-289" vertex="1">
          <mxGeometry x="40" y="250" width="130" height="40" as="geometry" />
        </mxCell>
        <mxCell id="e3jmrKQqIBXuTLJc6fM6-227" value="uint8_t idhac" style="text;html=1;align=left;verticalAlign=middle;whiteSpace=wrap;rounded=0;fontSize=18;container=0;" parent="e3jmrKQqIBXuTLJc6fM6-289" vertex="1">
          <mxGeometry x="52.5" y="255" width="107.5" height="30" as="geometry" />
        </mxCell>
        <mxCell id="e3jmrKQqIBXuTLJc6fM6-229" value="" style="rounded=0;whiteSpace=wrap;html=1;container=0;" parent="e3jmrKQqIBXuTLJc6fM6-289" vertex="1">
          <mxGeometry x="40" y="300" width="130" height="40" as="geometry" />
        </mxCell>
        <mxCell id="e3jmrKQqIBXuTLJc6fM6-230" value="uint8_t idq" style="text;html=1;align=left;verticalAlign=middle;whiteSpace=wrap;rounded=0;fontSize=18;container=0;" parent="e3jmrKQqIBXuTLJc6fM6-289" vertex="1">
          <mxGeometry x="52.5" y="305" width="97.5" height="30" as="geometry" />
        </mxCell>
        <mxCell id="e3jmrKQqIBXuTLJc6fM6-300" style="edgeStyle=orthogonalEdgeStyle;rounded=0;orthogonalLoop=1;jettySize=auto;html=1;exitX=0.5;exitY=1;exitDx=0;exitDy=0;entryX=0.5;entryY=1;entryDx=0;entryDy=0;dashed=1;" parent="MM-OqsWLesy-Uxxo-XAG-184" source="e3jmrKQqIBXuTLJc6fM6-20" target="e3jmrKQqIBXuTLJc6fM6-25" edge="1">
          <mxGeometry relative="1" as="geometry">
            <Array as="points">
              <mxPoint x="591" y="-150" />
              <mxPoint x="1445" y="-150" />
            </Array>
          </mxGeometry>
        </mxCell>
        <mxCell id="e3jmrKQqIBXuTLJc6fM6-305" style="edgeStyle=orthogonalEdgeStyle;rounded=0;orthogonalLoop=1;jettySize=auto;html=1;exitX=0.5;exitY=1;exitDx=0;exitDy=0;entryX=0;entryY=0.5;entryDx=0;entryDy=0;dashed=1;" parent="MM-OqsWLesy-Uxxo-XAG-184" source="e3jmrKQqIBXuTLJc6fM6-202" target="e3jmrKQqIBXuTLJc6fM6-190" edge="1">
          <mxGeometry relative="1" as="geometry" />
        </mxCell>
        <mxCell id="e3jmrKQqIBXuTLJc6fM6-308" value="" style="group" parent="MM-OqsWLesy-Uxxo-XAG-184" vertex="1" connectable="0">
          <mxGeometry x="760" width="160" height="40" as="geometry" />
        </mxCell>
        <mxCell id="e3jmrKQqIBXuTLJc6fM6-309" value="" style="rounded=0;whiteSpace=wrap;html=1;container=0;fillColor=#b1ddf0;strokeColor=#10739e;" parent="e3jmrKQqIBXuTLJc6fM6-308" vertex="1">
          <mxGeometry width="160" height="40" as="geometry" />
        </mxCell>
        <mxCell id="e3jmrKQqIBXuTLJc6fM6-310" value="&lt;div align=&quot;left&quot;&gt;huffman_tree_t *&lt;/div&gt;" style="text;html=1;align=left;verticalAlign=middle;whiteSpace=wrap;rounded=0;fontSize=18;container=0;" parent="e3jmrKQqIBXuTLJc6fM6-308" vertex="1">
          <mxGeometry x="10.666666666666666" y="8" width="138.66666666666666" height="24" as="geometry" />
        </mxCell>
        <mxCell id="e3jmrKQqIBXuTLJc6fM6-313" value="" style="group" parent="MM-OqsWLesy-Uxxo-XAG-184" vertex="1" connectable="0">
          <mxGeometry x="1040" width="160" height="40" as="geometry" />
        </mxCell>
        <mxCell id="e3jmrKQqIBXuTLJc6fM6-358" style="edgeStyle=orthogonalEdgeStyle;rounded=0;orthogonalLoop=1;jettySize=auto;html=1;exitX=0.5;exitY=0;exitDx=0;exitDy=0;dashed=1;endArrow=none;startFill=0;" parent="e3jmrKQqIBXuTLJc6fM6-313" source="e3jmrKQqIBXuTLJc6fM6-314" edge="1">
          <mxGeometry relative="1" as="geometry">
            <mxPoint x="80.18518518518499" y="-20" as="targetPoint" />
          </mxGeometry>
        </mxCell>
        <mxCell id="e3jmrKQqIBXuTLJc6fM6-314" value="" style="rounded=0;whiteSpace=wrap;html=1;container=0;fillColor=#b1ddf0;strokeColor=#10739e;" parent="e3jmrKQqIBXuTLJc6fM6-313" vertex="1">
          <mxGeometry width="160" height="40" as="geometry" />
        </mxCell>
        <mxCell id="e3jmrKQqIBXuTLJc6fM6-315" value="&lt;div align=&quot;left&quot;&gt;huffman_tree_t *&lt;/div&gt;" style="text;html=1;align=left;verticalAlign=middle;whiteSpace=wrap;rounded=0;fontSize=18;container=0;" parent="e3jmrKQqIBXuTLJc6fM6-313" vertex="1">
          <mxGeometry x="10.666666666666666" y="8" width="138.66666666666666" height="24" as="geometry" />
        </mxCell>
        <mxCell id="e3jmrKQqIBXuTLJc6fM6-318" style="edgeStyle=orthogonalEdgeStyle;rounded=0;orthogonalLoop=1;jettySize=auto;html=1;exitX=1;exitY=0.5;exitDx=0;exitDy=0;entryX=0;entryY=0.5;entryDx=0;entryDy=0;" parent="MM-OqsWLesy-Uxxo-XAG-184" source="e3jmrKQqIBXuTLJc6fM6-316" target="e3jmrKQqIBXuTLJc6fM6-314" edge="1">
          <mxGeometry relative="1" as="geometry" />
        </mxCell>
        <mxCell id="e3jmrKQqIBXuTLJc6fM6-316" value="&lt;div&gt;...&lt;/div&gt;" style="text;html=1;align=center;verticalAlign=middle;whiteSpace=wrap;rounded=0;fontSize=18;" parent="MM-OqsWLesy-Uxxo-XAG-184" vertex="1">
          <mxGeometry x="960" y="5" width="40" height="30" as="geometry" />
        </mxCell>
        <mxCell id="e3jmrKQqIBXuTLJc6fM6-317" style="edgeStyle=orthogonalEdgeStyle;rounded=0;orthogonalLoop=1;jettySize=auto;html=1;exitX=1;exitY=0.5;exitDx=0;exitDy=0;" parent="MM-OqsWLesy-Uxxo-XAG-184" source="e3jmrKQqIBXuTLJc6fM6-309" target="e3jmrKQqIBXuTLJc6fM6-316" edge="1">
          <mxGeometry relative="1" as="geometry" />
        </mxCell>
        <mxCell id="e3jmrKQqIBXuTLJc6fM6-319" value="" style="group" parent="MM-OqsWLesy-Uxxo-XAG-184" vertex="1" connectable="0">
          <mxGeometry x="760" y="50" width="160" height="40" as="geometry" />
        </mxCell>
        <mxCell id="e3jmrKQqIBXuTLJc6fM6-356" style="edgeStyle=orthogonalEdgeStyle;rounded=0;orthogonalLoop=1;jettySize=auto;html=1;exitX=0.5;exitY=1;exitDx=0;exitDy=0;endArrow=none;startFill=0;dashed=1;" parent="e3jmrKQqIBXuTLJc6fM6-319" source="e3jmrKQqIBXuTLJc6fM6-320" edge="1">
          <mxGeometry relative="1" as="geometry">
            <mxPoint x="510" y="-10" as="targetPoint" />
          </mxGeometry>
        </mxCell>
        <mxCell id="e3jmrKQqIBXuTLJc6fM6-320" value="" style="rounded=0;whiteSpace=wrap;html=1;container=0;fillColor=#b1ddf0;strokeColor=#10739e;" parent="e3jmrKQqIBXuTLJc6fM6-319" vertex="1">
          <mxGeometry width="160" height="40" as="geometry" />
        </mxCell>
        <mxCell id="e3jmrKQqIBXuTLJc6fM6-321" value="&lt;div align=&quot;left&quot;&gt;huffman_tree_t *&lt;/div&gt;" style="text;html=1;align=left;verticalAlign=middle;whiteSpace=wrap;rounded=0;fontSize=18;container=0;" parent="e3jmrKQqIBXuTLJc6fM6-319" vertex="1">
          <mxGeometry x="10.666666666666666" y="8" width="138.66666666666666" height="24" as="geometry" />
        </mxCell>
        <mxCell id="e3jmrKQqIBXuTLJc6fM6-322" value="" style="group" parent="MM-OqsWLesy-Uxxo-XAG-184" vertex="1" connectable="0">
          <mxGeometry x="1040" y="50" width="160" height="40" as="geometry" />
        </mxCell>
        <mxCell id="e3jmrKQqIBXuTLJc6fM6-357" style="edgeStyle=orthogonalEdgeStyle;rounded=0;orthogonalLoop=1;jettySize=auto;html=1;exitX=0.5;exitY=1;exitDx=0;exitDy=0;dashed=1;endArrow=none;startFill=0;" parent="e3jmrKQqIBXuTLJc6fM6-322" source="e3jmrKQqIBXuTLJc6fM6-323" edge="1">
          <mxGeometry relative="1" as="geometry">
            <mxPoint x="80.18518518518499" y="60" as="targetPoint" />
          </mxGeometry>
        </mxCell>
        <mxCell id="e3jmrKQqIBXuTLJc6fM6-323" value="" style="rounded=0;whiteSpace=wrap;html=1;container=0;fillColor=#b1ddf0;strokeColor=#10739e;" parent="e3jmrKQqIBXuTLJc6fM6-322" vertex="1">
          <mxGeometry width="160" height="40" as="geometry" />
        </mxCell>
        <mxCell id="e3jmrKQqIBXuTLJc6fM6-324" value="&lt;div align=&quot;left&quot;&gt;huffman_tree_t *&lt;/div&gt;" style="text;html=1;align=left;verticalAlign=middle;whiteSpace=wrap;rounded=0;fontSize=18;container=0;" parent="e3jmrKQqIBXuTLJc6fM6-322" vertex="1">
          <mxGeometry x="10.666666666666666" y="8" width="138.66666666666666" height="24" as="geometry" />
        </mxCell>
        <mxCell id="e3jmrKQqIBXuTLJc6fM6-325" style="edgeStyle=orthogonalEdgeStyle;rounded=0;orthogonalLoop=1;jettySize=auto;html=1;exitX=1;exitY=0.5;exitDx=0;exitDy=0;entryX=0;entryY=0.5;entryDx=0;entryDy=0;" parent="MM-OqsWLesy-Uxxo-XAG-184" source="e3jmrKQqIBXuTLJc6fM6-326" target="e3jmrKQqIBXuTLJc6fM6-323" edge="1">
          <mxGeometry relative="1" as="geometry" />
        </mxCell>
        <mxCell id="e3jmrKQqIBXuTLJc6fM6-326" value="&lt;div&gt;...&lt;/div&gt;" style="text;html=1;align=center;verticalAlign=middle;whiteSpace=wrap;rounded=0;fontSize=18;" parent="MM-OqsWLesy-Uxxo-XAG-184" vertex="1">
          <mxGeometry x="960" y="55" width="40" height="30" as="geometry" />
        </mxCell>
        <mxCell id="e3jmrKQqIBXuTLJc6fM6-327" style="edgeStyle=orthogonalEdgeStyle;rounded=0;orthogonalLoop=1;jettySize=auto;html=1;exitX=1;exitY=0.5;exitDx=0;exitDy=0;" parent="MM-OqsWLesy-Uxxo-XAG-184" source="e3jmrKQqIBXuTLJc6fM6-320" target="e3jmrKQqIBXuTLJc6fM6-326" edge="1">
          <mxGeometry relative="1" as="geometry" />
        </mxCell>
        <mxCell id="e3jmrKQqIBXuTLJc6fM6-328" style="edgeStyle=orthogonalEdgeStyle;rounded=0;orthogonalLoop=1;jettySize=auto;html=1;exitX=1;exitY=0.5;exitDx=0;exitDy=0;entryX=0;entryY=0.5;entryDx=0;entryDy=0;" parent="MM-OqsWLesy-Uxxo-XAG-184" source="e3jmrKQqIBXuTLJc6fM6-111" target="e3jmrKQqIBXuTLJc6fM6-309" edge="1">
          <mxGeometry relative="1" as="geometry" />
        </mxCell>
        <mxCell id="e3jmrKQqIBXuTLJc6fM6-329" style="edgeStyle=orthogonalEdgeStyle;rounded=0;orthogonalLoop=1;jettySize=auto;html=1;exitX=1;exitY=0.5;exitDx=0;exitDy=0;entryX=0;entryY=0.5;entryDx=0;entryDy=0;" parent="MM-OqsWLesy-Uxxo-XAG-184" source="e3jmrKQqIBXuTLJc6fM6-114" target="e3jmrKQqIBXuTLJc6fM6-320" edge="1">
          <mxGeometry relative="1" as="geometry" />
        </mxCell>
        <mxCell id="e3jmrKQqIBXuTLJc6fM6-330" value="" style="shape=curlyBracket;whiteSpace=wrap;html=1;rounded=1;labelPosition=left;verticalLabelPosition=middle;align=right;verticalAlign=middle;rotation=-90;" parent="MM-OqsWLesy-Uxxo-XAG-184" vertex="1">
          <mxGeometry x="970" y="-90" width="20" height="440" as="geometry" />
        </mxCell>
        <mxCell id="e3jmrKQqIBXuTLJc6fM6-333" style="edgeStyle=orthogonalEdgeStyle;rounded=0;orthogonalLoop=1;jettySize=auto;html=1;exitX=0.5;exitY=0;exitDx=0;exitDy=0;entryX=0;entryY=0.5;entryDx=0;entryDy=0;dashed=1;" parent="MM-OqsWLesy-Uxxo-XAG-184" source="e3jmrKQqIBXuTLJc6fM6-309" target="e3jmrKQqIBXuTLJc6fM6-118" edge="1">
          <mxGeometry relative="1" as="geometry">
            <Array as="points">
              <mxPoint x="840" y="-20" />
              <mxPoint x="1270" y="-20" />
              <mxPoint x="1270" y="45" />
            </Array>
          </mxGeometry>
        </mxCell>
        <mxCell id="e3jmrKQqIBXuTLJc6fM6-360" style="edgeStyle=orthogonalEdgeStyle;rounded=0;orthogonalLoop=1;jettySize=auto;html=1;exitX=1;exitY=0.5;exitDx=0;exitDy=0;entryX=0.5;entryY=0;entryDx=0;entryDy=0;" parent="MM-OqsWLesy-Uxxo-XAG-184" source="-bkXF7WFPklkNgfoujYP-18" target="e3jmrKQqIBXuTLJc6fM6-249" edge="1">
          <mxGeometry relative="1" as="geometry">
            <Array as="points">
              <mxPoint x="440" y="360" />
              <mxPoint x="440" y="600" />
              <mxPoint x="1200" y="600" />
            </Array>
          </mxGeometry>
        </mxCell>
        <mxCell id="e3jmrKQqIBXuTLJc6fM6-367" style="edgeStyle=orthogonalEdgeStyle;rounded=0;orthogonalLoop=1;jettySize=auto;html=1;exitX=1;exitY=0.5;exitDx=0;exitDy=0;entryX=0;entryY=0.5;entryDx=0;entryDy=0;" parent="MM-OqsWLesy-Uxxo-XAG-184" source="e3jmrKQqIBXuTLJc6fM6-233" target="e3jmrKQqIBXuTLJc6fM6-364" edge="1">
          <mxGeometry relative="1" as="geometry" />
        </mxCell>
        <mxCell id="e3jmrKQqIBXuTLJc6fM6-370" value="" style="group" parent="MM-OqsWLesy-Uxxo-XAG-184" vertex="1" connectable="0">
          <mxGeometry x="970" y="728" width="60" height="40" as="geometry" />
        </mxCell>
        <mxCell id="e3jmrKQqIBXuTLJc6fM6-364" value="" style="rounded=0;whiteSpace=wrap;html=1;container=0;" parent="e3jmrKQqIBXuTLJc6fM6-370" vertex="1">
          <mxGeometry width="60" height="40" as="geometry" />
        </mxCell>
        <mxCell id="e3jmrKQqIBXuTLJc6fM6-365" value="char" style="text;html=1;align=left;verticalAlign=middle;whiteSpace=wrap;rounded=0;fontSize=18;container=0;" parent="e3jmrKQqIBXuTLJc6fM6-370" vertex="1">
          <mxGeometry x="10.860000000000014" y="6" width="37.14" height="30" as="geometry" />
        </mxCell>
        <mxCell id="e3jmrKQqIBXuTLJc6fM6-371" value="" style="group" parent="MM-OqsWLesy-Uxxo-XAG-184" vertex="1" connectable="0">
          <mxGeometry x="970" y="790" width="60" height="40" as="geometry" />
        </mxCell>
        <mxCell id="e3jmrKQqIBXuTLJc6fM6-372" value="" style="rounded=0;whiteSpace=wrap;html=1;container=0;" parent="e3jmrKQqIBXuTLJc6fM6-371" vertex="1">
          <mxGeometry width="60" height="40" as="geometry" />
        </mxCell>
        <mxCell id="e3jmrKQqIBXuTLJc6fM6-373" value="char" style="text;html=1;align=left;verticalAlign=middle;whiteSpace=wrap;rounded=0;fontSize=18;container=0;" parent="e3jmrKQqIBXuTLJc6fM6-371" vertex="1">
          <mxGeometry x="10.860000000000014" y="6" width="37.14" height="30" as="geometry" />
        </mxCell>
        <mxCell id="e3jmrKQqIBXuTLJc6fM6-374" value="" style="group" parent="MM-OqsWLesy-Uxxo-XAG-184" vertex="1" connectable="0">
          <mxGeometry x="970" y="855" width="60" height="40" as="geometry" />
        </mxCell>
        <mxCell id="e3jmrKQqIBXuTLJc6fM6-375" value="" style="rounded=0;whiteSpace=wrap;html=1;container=0;" parent="e3jmrKQqIBXuTLJc6fM6-374" vertex="1">
          <mxGeometry width="60" height="40" as="geometry" />
        </mxCell>
        <mxCell id="e3jmrKQqIBXuTLJc6fM6-376" value="char" style="text;html=1;align=left;verticalAlign=middle;whiteSpace=wrap;rounded=0;fontSize=18;container=0;" parent="e3jmrKQqIBXuTLJc6fM6-374" vertex="1">
          <mxGeometry x="10.860000000000014" y="6" width="37.14" height="30" as="geometry" />
        </mxCell>
        <mxCell id="e3jmrKQqIBXuTLJc6fM6-377" value="" style="group" parent="MM-OqsWLesy-Uxxo-XAG-184" vertex="1" connectable="0">
          <mxGeometry x="970" y="985" width="60" height="40" as="geometry" />
        </mxCell>
        <mxCell id="e3jmrKQqIBXuTLJc6fM6-378" value="" style="rounded=0;whiteSpace=wrap;html=1;container=0;" parent="e3jmrKQqIBXuTLJc6fM6-377" vertex="1">
          <mxGeometry width="60" height="40" as="geometry" />
        </mxCell>
        <mxCell id="e3jmrKQqIBXuTLJc6fM6-379" value="char" style="text;html=1;align=left;verticalAlign=middle;whiteSpace=wrap;rounded=0;fontSize=18;container=0;" parent="e3jmrKQqIBXuTLJc6fM6-377" vertex="1">
          <mxGeometry x="10.860000000000014" y="6" width="37.14" height="30" as="geometry" />
        </mxCell>
        <mxCell id="e3jmrKQqIBXuTLJc6fM6-380" value="" style="group" parent="MM-OqsWLesy-Uxxo-XAG-184" vertex="1" connectable="0">
          <mxGeometry x="970" y="920" width="60" height="40" as="geometry" />
        </mxCell>
        <mxCell id="e3jmrKQqIBXuTLJc6fM6-381" value="" style="rounded=0;whiteSpace=wrap;html=1;container=0;" parent="e3jmrKQqIBXuTLJc6fM6-380" vertex="1">
          <mxGeometry width="60" height="40" as="geometry" />
        </mxCell>
        <mxCell id="e3jmrKQqIBXuTLJc6fM6-382" value="char" style="text;html=1;align=left;verticalAlign=middle;whiteSpace=wrap;rounded=0;fontSize=18;container=0;" parent="e3jmrKQqIBXuTLJc6fM6-380" vertex="1">
          <mxGeometry x="10.860000000000014" y="6" width="37.14" height="30" as="geometry" />
        </mxCell>
        <mxCell id="e3jmrKQqIBXuTLJc6fM6-384" style="edgeStyle=orthogonalEdgeStyle;rounded=0;orthogonalLoop=1;jettySize=auto;html=1;exitX=0.5;exitY=1;exitDx=0;exitDy=0;entryX=0.5;entryY=0;entryDx=0;entryDy=0;" parent="MM-OqsWLesy-Uxxo-XAG-184" source="e3jmrKQqIBXuTLJc6fM6-364" target="e3jmrKQqIBXuTLJc6fM6-372" edge="1">
          <mxGeometry relative="1" as="geometry" />
        </mxCell>
        <mxCell id="e3jmrKQqIBXuTLJc6fM6-385" style="edgeStyle=orthogonalEdgeStyle;rounded=0;orthogonalLoop=1;jettySize=auto;html=1;exitX=0.5;exitY=1;exitDx=0;exitDy=0;entryX=0.5;entryY=0;entryDx=0;entryDy=0;" parent="MM-OqsWLesy-Uxxo-XAG-184" source="e3jmrKQqIBXuTLJc6fM6-372" target="e3jmrKQqIBXuTLJc6fM6-375" edge="1">
          <mxGeometry relative="1" as="geometry" />
        </mxCell>
        <mxCell id="e3jmrKQqIBXuTLJc6fM6-386" style="edgeStyle=orthogonalEdgeStyle;rounded=0;orthogonalLoop=1;jettySize=auto;html=1;exitX=0.5;exitY=1;exitDx=0;exitDy=0;entryX=0.5;entryY=0;entryDx=0;entryDy=0;" parent="MM-OqsWLesy-Uxxo-XAG-184" source="e3jmrKQqIBXuTLJc6fM6-375" target="e3jmrKQqIBXuTLJc6fM6-381" edge="1">
          <mxGeometry relative="1" as="geometry" />
        </mxCell>
        <mxCell id="e3jmrKQqIBXuTLJc6fM6-387" style="edgeStyle=orthogonalEdgeStyle;rounded=0;orthogonalLoop=1;jettySize=auto;html=1;exitX=0.5;exitY=1;exitDx=0;exitDy=0;entryX=0.5;entryY=0;entryDx=0;entryDy=0;" parent="MM-OqsWLesy-Uxxo-XAG-184" source="e3jmrKQqIBXuTLJc6fM6-381" target="e3jmrKQqIBXuTLJc6fM6-378" edge="1">
          <mxGeometry relative="1" as="geometry" />
        </mxCell>
        <mxCell id="e3jmrKQqIBXuTLJc6fM6-388" style="edgeStyle=orthogonalEdgeStyle;rounded=0;orthogonalLoop=1;jettySize=auto;html=1;exitX=1;exitY=0.5;exitDx=0;exitDy=0;entryX=0;entryY=0.5;entryDx=0;entryDy=0;" parent="MM-OqsWLesy-Uxxo-XAG-184" source="-bkXF7WFPklkNgfoujYP-8" target="e3jmrKQqIBXuTLJc6fM6-48" edge="1">
          <mxGeometry relative="1" as="geometry">
            <Array as="points">
              <mxPoint x="360" y="210" />
              <mxPoint x="360" y="-375" />
            </Array>
          </mxGeometry>
        </mxCell>
        <mxCell id="xY01VToSRTsKF92lG6tx-4" value="" style="group" vertex="1" connectable="0" parent="MM-OqsWLesy-Uxxo-XAG-184">
          <mxGeometry x="80" y="440" width="220" height="40" as="geometry" />
        </mxCell>
        <mxCell id="xY01VToSRTsKF92lG6tx-5" value="" style="rounded=0;whiteSpace=wrap;html=1;container=0;fillColor=#b1ddf0;strokeColor=#10739e;" vertex="1" parent="xY01VToSRTsKF92lG6tx-4">
          <mxGeometry width="220" height="40" as="geometry" />
        </mxCell>
        <mxCell id="xY01VToSRTsKF92lG6tx-6" value="com_t *com" style="text;html=1;align=left;verticalAlign=middle;whiteSpace=wrap;rounded=0;fontSize=18;container=0;" vertex="1" parent="xY01VToSRTsKF92lG6tx-4">
          <mxGeometry x="11.578947368421053" y="5" width="208.42105263157896" height="30" as="geometry" />
        </mxCell>
        <mxCell id="xY01VToSRTsKF92lG6tx-7" value="" style="group" vertex="1" connectable="0" parent="MM-OqsWLesy-Uxxo-XAG-184">
          <mxGeometry x="200" y="820" width="210" height="150" as="geometry" />
        </mxCell>
        <mxCell id="xY01VToSRTsKF92lG6tx-8" value="&lt;div align=&quot;left&quot;&gt;&lt;br&gt;&lt;/div&gt;" style="rounded=0;whiteSpace=wrap;html=1;container=0;" vertex="1" parent="xY01VToSRTsKF92lG6tx-7">
          <mxGeometry width="210" height="150" as="geometry" />
        </mxCell>
        <mxCell id="xY01VToSRTsKF92lG6tx-9" value="com_t" style="text;html=1;align=left;verticalAlign=middle;whiteSpace=wrap;rounded=0;fontSize=18;container=0;" vertex="1" parent="xY01VToSRTsKF92lG6tx-7">
          <mxGeometry x="10" y="10" width="160" height="30" as="geometry" />
        </mxCell>
        <mxCell id="xY01VToSRTsKF92lG6tx-10" value="" style="group" vertex="1" connectable="0" parent="xY01VToSRTsKF92lG6tx-7">
          <mxGeometry x="40" y="50" width="160" height="40" as="geometry" />
        </mxCell>
        <mxCell id="xY01VToSRTsKF92lG6tx-11" value="" style="rounded=0;whiteSpace=wrap;html=1;container=0;" vertex="1" parent="xY01VToSRTsKF92lG6tx-10">
          <mxGeometry width="160" height="40" as="geometry" />
        </mxCell>
        <mxCell id="xY01VToSRTsKF92lG6tx-12" value="int nb" style="text;html=1;align=left;verticalAlign=middle;whiteSpace=wrap;rounded=0;fontSize=18;container=0;" vertex="1" parent="xY01VToSRTsKF92lG6tx-10">
          <mxGeometry x="10" y="5" width="142.38" height="30" as="geometry" />
        </mxCell>
        <mxCell id="xY01VToSRTsKF92lG6tx-13" value="" style="group" vertex="1" connectable="0" parent="xY01VToSRTsKF92lG6tx-7">
          <mxGeometry x="40" y="100" width="160" height="40" as="geometry" />
        </mxCell>
        <mxCell id="xY01VToSRTsKF92lG6tx-14" value="" style="rounded=0;whiteSpace=wrap;html=1;container=0;fillColor=#b1ddf0;strokeColor=#10739e;" vertex="1" parent="xY01VToSRTsKF92lG6tx-13">
          <mxGeometry width="160" height="40" as="geometry" />
        </mxCell>
        <mxCell id="xY01VToSRTsKF92lG6tx-15" value="char **com" style="text;html=1;align=left;verticalAlign=middle;whiteSpace=wrap;rounded=0;fontSize=18;container=0;" vertex="1" parent="xY01VToSRTsKF92lG6tx-13">
          <mxGeometry x="10" y="5" width="142.38" height="30" as="geometry" />
        </mxCell>
        <mxCell id="xY01VToSRTsKF92lG6tx-16" value="" style="group" vertex="1" connectable="0" parent="MM-OqsWLesy-Uxxo-XAG-184">
          <mxGeometry x="453" y="910" width="60" height="40" as="geometry" />
        </mxCell>
        <mxCell id="xY01VToSRTsKF92lG6tx-17" value="" style="rounded=0;whiteSpace=wrap;html=1;container=0;" vertex="1" parent="xY01VToSRTsKF92lG6tx-16">
          <mxGeometry width="60" height="40" as="geometry" />
        </mxCell>
        <mxCell id="xY01VToSRTsKF92lG6tx-18" value="char" style="text;html=1;align=left;verticalAlign=middle;whiteSpace=wrap;rounded=0;fontSize=18;container=0;" vertex="1" parent="xY01VToSRTsKF92lG6tx-16">
          <mxGeometry x="10.860000000000014" y="6" width="37.14" height="30" as="geometry" />
        </mxCell>
        <mxCell id="xY01VToSRTsKF92lG6tx-22" value="" style="group" vertex="1" connectable="0" parent="MM-OqsWLesy-Uxxo-XAG-184">
          <mxGeometry x="453" y="1023" width="60" height="40" as="geometry" />
        </mxCell>
        <mxCell id="xY01VToSRTsKF92lG6tx-23" value="" style="rounded=0;whiteSpace=wrap;html=1;container=0;" vertex="1" parent="xY01VToSRTsKF92lG6tx-22">
          <mxGeometry width="60" height="40" as="geometry" />
        </mxCell>
        <mxCell id="xY01VToSRTsKF92lG6tx-24" value="char" style="text;html=1;align=left;verticalAlign=middle;whiteSpace=wrap;rounded=0;fontSize=18;container=0;" vertex="1" parent="xY01VToSRTsKF92lG6tx-22">
          <mxGeometry x="10.860000000000014" y="6" width="37.14" height="30" as="geometry" />
        </mxCell>
        <mxCell id="xY01VToSRTsKF92lG6tx-25" style="edgeStyle=orthogonalEdgeStyle;rounded=0;orthogonalLoop=1;jettySize=auto;html=1;exitX=0.5;exitY=1;exitDx=0;exitDy=0;entryX=0.5;entryY=0;entryDx=0;entryDy=0;" edge="1" parent="MM-OqsWLesy-Uxxo-XAG-184" source="xY01VToSRTsKF92lG6tx-17" target="xY01VToSRTsKF92lG6tx-28">
          <mxGeometry relative="1" as="geometry">
            <mxPoint x="483" y="972" as="targetPoint" />
          </mxGeometry>
        </mxCell>
        <mxCell id="xY01VToSRTsKF92lG6tx-26" style="edgeStyle=orthogonalEdgeStyle;rounded=0;orthogonalLoop=1;jettySize=auto;html=1;exitX=0.5;exitY=1;exitDx=0;exitDy=0;entryX=0.5;entryY=0;entryDx=0;entryDy=0;" edge="1" parent="MM-OqsWLesy-Uxxo-XAG-184" source="xY01VToSRTsKF92lG6tx-28" target="xY01VToSRTsKF92lG6tx-23">
          <mxGeometry relative="1" as="geometry">
            <mxPoint x="483" y="1012" as="sourcePoint" />
          </mxGeometry>
        </mxCell>
        <mxCell id="xY01VToSRTsKF92lG6tx-28" value="&lt;div&gt;...&lt;/div&gt;" style="text;html=1;align=center;verticalAlign=middle;whiteSpace=wrap;rounded=0;fontSize=18;" vertex="1" parent="MM-OqsWLesy-Uxxo-XAG-184">
          <mxGeometry x="463" y="970" width="40" height="30" as="geometry" />
        </mxCell>
        <mxCell id="xY01VToSRTsKF92lG6tx-29" value="" style="group;fillColor=#b1ddf0;strokeColor=#10739e;" vertex="1" connectable="0" parent="MM-OqsWLesy-Uxxo-XAG-184">
          <mxGeometry x="453" y="850" width="60" height="40" as="geometry" />
        </mxCell>
        <mxCell id="xY01VToSRTsKF92lG6tx-30" value="" style="rounded=0;whiteSpace=wrap;html=1;container=0;fillColor=#b1ddf0;strokeColor=#10739e;" vertex="1" parent="xY01VToSRTsKF92lG6tx-29">
          <mxGeometry width="60" height="40" as="geometry" />
        </mxCell>
        <mxCell id="xY01VToSRTsKF92lG6tx-31" value="char*" style="text;html=1;align=left;verticalAlign=middle;whiteSpace=wrap;rounded=0;fontSize=18;container=0;" vertex="1" parent="xY01VToSRTsKF92lG6tx-29">
          <mxGeometry x="10.860000000000014" y="6" width="37.14" height="30" as="geometry" />
        </mxCell>
        <mxCell id="xY01VToSRTsKF92lG6tx-32" style="edgeStyle=orthogonalEdgeStyle;rounded=0;orthogonalLoop=1;jettySize=auto;html=1;exitX=0.5;exitY=1;exitDx=0;exitDy=0;entryX=0.5;entryY=0;entryDx=0;entryDy=0;" edge="1" parent="MM-OqsWLesy-Uxxo-XAG-184" source="xY01VToSRTsKF92lG6tx-30" target="xY01VToSRTsKF92lG6tx-17">
          <mxGeometry relative="1" as="geometry">
            <mxPoint x="483" y="907" as="targetPoint" />
          </mxGeometry>
        </mxCell>
        <mxCell id="xY01VToSRTsKF92lG6tx-33" value="" style="group" vertex="1" connectable="0" parent="MM-OqsWLesy-Uxxo-XAG-184">
          <mxGeometry x="595" y="910" width="60" height="40" as="geometry" />
        </mxCell>
        <mxCell id="xY01VToSRTsKF92lG6tx-34" value="" style="rounded=0;whiteSpace=wrap;html=1;container=0;" vertex="1" parent="xY01VToSRTsKF92lG6tx-33">
          <mxGeometry width="60" height="40" as="geometry" />
        </mxCell>
        <mxCell id="xY01VToSRTsKF92lG6tx-35" value="char" style="text;html=1;align=left;verticalAlign=middle;whiteSpace=wrap;rounded=0;fontSize=18;container=0;" vertex="1" parent="xY01VToSRTsKF92lG6tx-33">
          <mxGeometry x="10.860000000000014" y="6" width="37.14" height="30" as="geometry" />
        </mxCell>
        <mxCell id="xY01VToSRTsKF92lG6tx-36" value="" style="group" vertex="1" connectable="0" parent="MM-OqsWLesy-Uxxo-XAG-184">
          <mxGeometry x="595" y="1023" width="60" height="40" as="geometry" />
        </mxCell>
        <mxCell id="xY01VToSRTsKF92lG6tx-37" value="" style="rounded=0;whiteSpace=wrap;html=1;container=0;" vertex="1" parent="xY01VToSRTsKF92lG6tx-36">
          <mxGeometry width="60" height="40" as="geometry" />
        </mxCell>
        <mxCell id="xY01VToSRTsKF92lG6tx-38" value="char" style="text;html=1;align=left;verticalAlign=middle;whiteSpace=wrap;rounded=0;fontSize=18;container=0;" vertex="1" parent="xY01VToSRTsKF92lG6tx-36">
          <mxGeometry x="10.860000000000014" y="6" width="37.14" height="30" as="geometry" />
        </mxCell>
        <mxCell id="xY01VToSRTsKF92lG6tx-39" style="edgeStyle=orthogonalEdgeStyle;rounded=0;orthogonalLoop=1;jettySize=auto;html=1;exitX=0.5;exitY=1;exitDx=0;exitDy=0;entryX=0.5;entryY=0;entryDx=0;entryDy=0;" edge="1" parent="MM-OqsWLesy-Uxxo-XAG-184" source="xY01VToSRTsKF92lG6tx-34" target="xY01VToSRTsKF92lG6tx-41">
          <mxGeometry relative="1" as="geometry">
            <mxPoint x="625" y="972" as="targetPoint" />
          </mxGeometry>
        </mxCell>
        <mxCell id="xY01VToSRTsKF92lG6tx-40" style="edgeStyle=orthogonalEdgeStyle;rounded=0;orthogonalLoop=1;jettySize=auto;html=1;exitX=0.5;exitY=1;exitDx=0;exitDy=0;entryX=0.5;entryY=0;entryDx=0;entryDy=0;" edge="1" parent="MM-OqsWLesy-Uxxo-XAG-184" source="xY01VToSRTsKF92lG6tx-41" target="xY01VToSRTsKF92lG6tx-37">
          <mxGeometry relative="1" as="geometry">
            <mxPoint x="625" y="1012" as="sourcePoint" />
          </mxGeometry>
        </mxCell>
        <mxCell id="xY01VToSRTsKF92lG6tx-41" value="&lt;div&gt;...&lt;/div&gt;" style="text;html=1;align=center;verticalAlign=middle;whiteSpace=wrap;rounded=0;fontSize=18;" vertex="1" parent="MM-OqsWLesy-Uxxo-XAG-184">
          <mxGeometry x="605" y="970" width="40" height="30" as="geometry" />
        </mxCell>
        <mxCell id="xY01VToSRTsKF92lG6tx-42" value="" style="group;fillColor=#b1ddf0;strokeColor=#10739e;" vertex="1" connectable="0" parent="MM-OqsWLesy-Uxxo-XAG-184">
          <mxGeometry x="595" y="850" width="60" height="40" as="geometry" />
        </mxCell>
        <mxCell id="xY01VToSRTsKF92lG6tx-43" value="" style="rounded=0;whiteSpace=wrap;html=1;container=0;fillColor=#b1ddf0;strokeColor=#10739e;" vertex="1" parent="xY01VToSRTsKF92lG6tx-42">
          <mxGeometry width="60" height="40" as="geometry" />
        </mxCell>
        <mxCell id="xY01VToSRTsKF92lG6tx-44" value="char*" style="text;html=1;align=left;verticalAlign=middle;whiteSpace=wrap;rounded=0;fontSize=18;container=0;" vertex="1" parent="xY01VToSRTsKF92lG6tx-42">
          <mxGeometry x="10.860000000000014" y="6" width="37.14" height="30" as="geometry" />
        </mxCell>
        <mxCell id="xY01VToSRTsKF92lG6tx-45" style="edgeStyle=orthogonalEdgeStyle;rounded=0;orthogonalLoop=1;jettySize=auto;html=1;exitX=0.5;exitY=1;exitDx=0;exitDy=0;entryX=0.5;entryY=0;entryDx=0;entryDy=0;" edge="1" parent="MM-OqsWLesy-Uxxo-XAG-184" source="xY01VToSRTsKF92lG6tx-43" target="xY01VToSRTsKF92lG6tx-34">
          <mxGeometry relative="1" as="geometry">
            <mxPoint x="625" y="907" as="targetPoint" />
          </mxGeometry>
        </mxCell>
        <mxCell id="xY01VToSRTsKF92lG6tx-50" style="edgeStyle=orthogonalEdgeStyle;rounded=0;orthogonalLoop=1;jettySize=auto;html=1;exitX=1;exitY=0.5;exitDx=0;exitDy=0;entryX=0;entryY=0.5;entryDx=0;entryDy=0;" edge="1" parent="MM-OqsWLesy-Uxxo-XAG-184" source="xY01VToSRTsKF92lG6tx-47" target="xY01VToSRTsKF92lG6tx-43">
          <mxGeometry relative="1" as="geometry" />
        </mxCell>
        <mxCell id="xY01VToSRTsKF92lG6tx-47" value="&lt;div&gt;...&lt;/div&gt;" style="text;html=1;align=center;verticalAlign=middle;whiteSpace=wrap;rounded=0;fontSize=18;" vertex="1" parent="MM-OqsWLesy-Uxxo-XAG-184">
          <mxGeometry x="534" y="855" width="40" height="30" as="geometry" />
        </mxCell>
        <mxCell id="xY01VToSRTsKF92lG6tx-49" style="edgeStyle=orthogonalEdgeStyle;rounded=0;orthogonalLoop=1;jettySize=auto;html=1;exitX=1;exitY=0.5;exitDx=0;exitDy=0;entryX=0;entryY=0.5;entryDx=0;entryDy=0;" edge="1" parent="MM-OqsWLesy-Uxxo-XAG-184" source="xY01VToSRTsKF92lG6tx-30" target="xY01VToSRTsKF92lG6tx-47">
          <mxGeometry relative="1" as="geometry" />
        </mxCell>
        <mxCell id="xY01VToSRTsKF92lG6tx-51" style="edgeStyle=orthogonalEdgeStyle;rounded=0;orthogonalLoop=1;jettySize=auto;html=1;exitX=1;exitY=0.5;exitDx=0;exitDy=0;entryX=0;entryY=0.5;entryDx=0;entryDy=0;" edge="1" parent="MM-OqsWLesy-Uxxo-XAG-184" source="xY01VToSRTsKF92lG6tx-14" target="xY01VToSRTsKF92lG6tx-30">
          <mxGeometry relative="1" as="geometry" />
        </mxCell>
        <mxCell id="xY01VToSRTsKF92lG6tx-53" style="edgeStyle=orthogonalEdgeStyle;rounded=0;orthogonalLoop=1;jettySize=auto;html=1;exitX=1;exitY=0.5;exitDx=0;exitDy=0;entryX=0.856;entryY=0.013;entryDx=0;entryDy=0;entryPerimeter=0;" edge="1" parent="MM-OqsWLesy-Uxxo-XAG-184" source="xY01VToSRTsKF92lG6tx-6" target="xY01VToSRTsKF92lG6tx-8">
          <mxGeometry relative="1" as="geometry" />
        </mxCell>
        <mxCell id="xY01VToSRTsKF92lG6tx-54" style="edgeStyle=orthogonalEdgeStyle;rounded=0;orthogonalLoop=1;jettySize=auto;html=1;exitX=1;exitY=0.5;exitDx=0;exitDy=0;entryX=0.5;entryY=0;entryDx=0;entryDy=0;" edge="1" parent="MM-OqsWLesy-Uxxo-XAG-184" source="-bkXF7WFPklkNgfoujYP-21" target="e3jmrKQqIBXuTLJc6fM6-231">
          <mxGeometry relative="1" as="geometry">
            <Array as="points">
              <mxPoint x="410" y="410" />
              <mxPoint x="410" y="630" />
              <mxPoint x="810" y="630" />
            </Array>
          </mxGeometry>
        </mxCell>
      </root>
    </mxGraphModel>
  </diagram>
</mxfile>
